<svg width="19" height="19" viewBox="0 0 19 19" fill="none" xmlns="http://www.w3.org/2000/svg">
<g clip-path="url(#clip0_2234_1145)">
<path d="M0 9.44C0 4.22726 4.22726 0 9.44 0C14.6527 0 18.88 4.22726 18.88 9.44C18.88 14.6527 14.6527 18.88 9.44 18.88C4.22726 18.88 0 14.6527 0 9.44Z" fill="#EA4949"/>
<path d="M6.55591 5.15564C6.55591 5.15564 6.70049 4.93115 6.8565 4.93115C7.00869 4.93115 6.99347 5.59321 6.99347 5.59321L6.55591 5.15564Z" fill="#BC7F04"/>
<path d="M9.47435 7.12662C10.9327 7.12662 12.115 5.94438 12.115 4.48601C12.115 3.02764 10.9327 1.8454 9.47435 1.8454C8.01598 1.8454 6.83374 3.02764 6.83374 4.48601C6.83374 5.94438 8.01598 7.12662 9.47435 7.12662Z" fill="#E2A01A"/>
<path d="M7.60611 2.61777C8.63725 1.58664 10.3114 1.58664 11.3425 2.61777C12.3737 3.6489 8.63725 7.38533 7.60611 6.3542C6.57498 5.31926 6.57498 3.6489 7.60611 2.61777Z" fill="#EDA932"/>
<path d="M10.3988 2.11934C9.00621 1.68178 7.5261 2.45798 7.08854 3.84677C6.65097 5.23937 11.7914 2.5531 10.3988 2.11934Z" fill="#F4BA5B"/>
<path d="M6.55591 5.15567C6.55591 5.15567 7.38918 9.10518 8.03602 10.1668L9.53896 11.9436L10.3342 9.98792L9.65692 5.01489C9.65692 5.01489 9.26501 6.14876 8.27193 6.17159C7.57943 6.18681 7.42343 5.92427 7.03913 5.29265C6.98586 5.21275 6.72332 5.11002 6.55591 5.15567Z" fill="#FFCD5C"/>
<path d="M7.19141 6.51782C7.19141 6.51782 8.0361 8.81219 9.15855 10.7755C9.15855 10.7755 8.16546 8.05501 7.19141 6.51782Z" fill="#F9C04E"/>
<path d="M8.03223 10.1667C8.03223 10.1667 8.19964 12.1529 8.26813 13.146L9.46287 11.6202L8.03223 10.1667Z" fill="#F9BB41"/>
<path d="M10.9887 6.19443C11.3578 6.00038 11.8904 5.80252 11.9133 4.48602L12.191 4.69529L12.0541 6.08028L11.2208 7.7202L10.2734 7.25981L10.0413 6.31238C10.0451 6.30858 10.6196 6.38468 10.9887 6.19443Z" fill="#E5A70C"/>
<path d="M10.4141 12.1529C10.4141 12.1529 10.7603 13.7548 11.0153 14.1847C11.0153 14.1847 9.76725 15.0865 7.96753 14.1847L8.03602 13.9298L10.4141 12.1529Z" fill="#FFC431"/>
<path d="M9.46657 12.1529V14.5842C9.0328 14.5728 8.52675 14.4663 7.96362 14.1847L8.03211 13.9298L9.46657 12.1529Z" fill="#FCC74F"/>
<path d="M11.3919 15.0409C11.3919 15.0409 10.6918 15.2463 9.48947 15.2463C8.28331 15.2463 7.59082 15.0409 7.59082 15.0409L7.96751 14.1848C7.96751 14.1848 8.54585 14.3902 9.48947 14.3902C10.4331 14.3902 11.0152 14.1848 11.0152 14.1848L11.3919 15.0409Z" fill="#80BC9C"/>
<path d="M9.48557 15.2463C8.27941 15.2463 7.58691 15.0409 7.58691 15.0409L7.9636 14.1848C7.9636 14.1848 8.54195 14.3902 9.48557 14.3902V15.2463Z" fill="#9ED8B9"/>
<path d="M12.0501 16.5818L11.7876 15.9426C11.7648 15.8855 10.6728 15.5964 9.48563 15.5964C8.2985 15.5964 7.2141 15.8855 7.19127 15.9426L6.92873 16.5818C6.91731 16.6123 6.91731 16.6503 6.92873 16.6808C6.94014 16.7112 6.96678 16.734 6.99722 16.7455C7.03526 16.7569 7.92942 17.0384 9.48944 17.0384C11.0495 17.0384 11.9474 16.7569 11.9855 16.7455C12.0159 16.734 12.0387 16.7112 12.0539 16.6808C12.0692 16.6503 12.0654 16.6123 12.0501 16.5818Z" fill="#80BC9C"/>
<path d="M9.48563 15.5964C8.2985 15.5964 7.2141 15.8855 7.19127 15.9426L6.92873 16.5818C6.91731 16.6123 6.91731 16.6503 6.92873 16.6808C6.94014 16.7112 6.96678 16.734 6.99722 16.7455C7.03526 16.7569 7.92942 17.0384 9.48944 17.0384V15.5964H9.48563Z" fill="#9ED8B9"/>
<path d="M11.7877 15.9426C11.7877 15.9426 10.9431 16.19 9.48577 16.19C8.02849 16.19 7.19141 15.9426 7.19141 15.9426L7.648 14.9115C7.648 14.9115 8.3481 15.1588 9.48958 15.1588C10.6311 15.1588 11.335 14.9115 11.335 14.9115L11.7877 15.9426Z" fill="#FFD16C"/>
<path d="M9.48577 16.19C8.02849 16.19 7.19141 15.9426 7.19141 15.9426L7.648 14.9115C7.648 14.9115 8.3481 15.1588 9.48958 15.1588V16.19H9.48577Z" fill="#FCD486"/>
<path d="M11.4983 6.94397C11.4983 6.94397 11.1749 7.68212 11.0608 7.68212C10.9466 7.68212 10.3683 7.21031 10.3683 7.21031L10.1895 6.14874L11.4983 6.94397Z" fill="#D89319"/>
<path d="M10.4368 6.30856C10.4368 6.30856 10.2618 6.50642 10.3912 6.62056C10.5167 6.73471 10.6803 6.87549 10.8059 6.92115C10.9315 6.96681 11.2092 7.06954 11.3043 7.04672C11.3957 7.02389 11.5593 6.96681 11.4413 6.70047C11.3272 6.43412 11.2206 6.21724 10.8972 6.20202C10.5738 6.19441 10.5396 6.22866 10.4368 6.30856Z" fill="#E2A01A"/>
<path d="M11.9132 4.48601C11.9132 4.48601 12.073 4.3262 12.1453 4.39469C12.2138 4.46318 12.4688 4.90455 12.2138 5.75685C11.9589 6.61295 11.6355 7.97511 11.4757 8.41268C11.3159 8.85025 10.2961 8.06643 10.2961 8.06643L10.3266 7.20272C10.3266 7.20272 10.4636 7.19891 10.669 7.27881C10.8783 7.35872 11.1294 7.62506 11.1294 7.62506C11.1294 7.62506 12.7237 4.99206 11.9132 4.48601Z" fill="#F2B408"/>
<path d="M9.51221 4.90076C9.51221 4.90076 10.1362 9.3373 9.72148 10.9087L10.3188 9.32588L10.3455 8.07026L10.3683 7.21415C10.3683 7.21415 9.90792 4.37188 9.74431 4.37188C9.5807 4.36808 9.52362 4.56593 9.51221 4.90076Z" fill="#FFC431"/>
<path d="M8.26433 13.1232C8.26433 13.1232 10.319 10.5586 10.3418 8.06262C10.3418 8.06262 10.8022 8.45453 11.4719 8.40887C11.4719 8.40887 11.0343 9.37912 11.0343 10.3494C11.0343 10.3494 11.0343 13.4009 8.03223 13.9298L8.26433 13.1232Z" fill="#E2A50C"/>
<path d="M8.26807 13.5188C8.26807 13.5188 10.9163 10.7679 10.9353 8.78552C10.9353 8.78552 11.4071 10.7755 8.26807 13.5188Z" fill="#D89A0F"/>
</g>
<defs>
<clipPath id="clip0_2234_1145">
<rect width="18.88" height="18.88" fill="white"/>
</clipPath>
</defs>
</svg>
