<svg width="48" height="11" viewBox="0 0 48 11" fill="none" xmlns="http://www.w3.org/2000/svg">
<path d="M2.244 10V6.568L0.144 0.279999H1.404L2.892 4.972L4.356 0.279999H5.628L3.54 6.568V10H2.244ZM9.01734 10.108C8.36134 10.108 7.83734 9.98 7.44534 9.724C7.05334 9.468 6.77334 9.104 6.60534 8.632C6.43734 8.152 6.35334 7.592 6.35334 6.952V3.268C6.35334 2.628 6.43734 2.08 6.60534 1.624C6.78134 1.16 7.06134 0.808 7.44534 0.568C7.83734 0.32 8.36134 0.196 9.01734 0.196C9.67334 0.196 10.1933 0.32 10.5773 0.568C10.9613 0.816 11.2373 1.168 11.4053 1.624C11.5813 2.08 11.6693 2.628 11.6693 3.268V6.964C11.6693 7.596 11.5813 8.148 11.4053 8.62C11.2373 9.092 10.9613 9.46 10.5773 9.724C10.1933 9.98 9.67334 10.108 9.01734 10.108ZM9.01734 9.04C9.37734 9.04 9.64934 8.968 9.83334 8.824C10.0173 8.672 10.1413 8.464 10.2053 8.2C10.2693 7.928 10.3013 7.612 10.3013 7.252V2.992C10.3013 2.632 10.2693 2.324 10.2053 2.068C10.1413 1.804 10.0173 1.604 9.83334 1.468C9.64934 1.324 9.37734 1.252 9.01734 1.252C8.65734 1.252 8.38134 1.324 8.18934 1.468C8.00534 1.604 7.88134 1.804 7.81734 2.068C7.75334 2.324 7.72134 2.632 7.72134 2.992V7.252C7.72134 7.612 7.75334 7.928 7.81734 8.2C7.88134 8.464 8.00534 8.672 8.18934 8.824C8.38134 8.968 8.65734 9.04 9.01734 9.04ZM15.5101 10.108C14.8061 10.108 14.2661 9.968 13.8901 9.688C13.5141 9.408 13.2581 9.016 13.1221 8.512C12.9861 8 12.9181 7.404 12.9181 6.724V0.279999H14.2141V6.784C14.2141 7.2 14.2421 7.58 14.2981 7.924C14.3541 8.268 14.4741 8.54 14.6581 8.74C14.8501 8.94 15.1341 9.04 15.5101 9.04C15.8941 9.04 16.1781 8.94 16.3621 8.74C16.5461 8.54 16.6661 8.268 16.7221 7.924C16.7781 7.58 16.8061 7.2 16.8061 6.784V0.279999H18.0901V6.724C18.0901 7.404 18.0221 8 17.8861 8.512C17.7501 9.016 17.4941 9.408 17.1181 9.688C16.7501 9.968 16.2141 10.108 15.5101 10.108ZM21.8097 10.108C21.2497 10.108 20.7817 9.988 20.4057 9.748C20.0377 9.508 19.7577 9.176 19.5657 8.752C19.3737 8.328 19.2617 7.836 19.2297 7.276L20.4297 6.952C20.4537 7.296 20.5057 7.628 20.5857 7.948C20.6737 8.268 20.8137 8.532 21.0057 8.74C21.1977 8.94 21.4657 9.04 21.8097 9.04C22.1617 9.04 22.4257 8.944 22.6017 8.752C22.7857 8.552 22.8777 8.268 22.8777 7.9C22.8777 7.46 22.7777 7.108 22.5777 6.844C22.3777 6.572 22.1257 6.3 21.8217 6.028L20.1897 4.588C19.8697 4.308 19.6337 4.004 19.4817 3.676C19.3297 3.34 19.2537 2.928 19.2537 2.44C19.2537 1.728 19.4577 1.176 19.8657 0.784C20.2737 0.392 20.8297 0.196 21.5337 0.196C21.9177 0.196 22.2537 0.248 22.5417 0.352C22.8377 0.447999 23.0817 0.599999 23.2737 0.808C23.4737 1.016 23.6297 1.28 23.7417 1.6C23.8617 1.912 23.9417 2.28 23.9817 2.704L22.8297 3.016C22.8057 2.696 22.7577 2.404 22.6857 2.14C22.6137 1.868 22.4857 1.652 22.3017 1.492C22.1257 1.324 21.8697 1.24 21.5337 1.24C21.1977 1.24 20.9337 1.332 20.7417 1.516C20.5577 1.692 20.4657 1.956 20.4657 2.308C20.4657 2.604 20.5137 2.848 20.6097 3.04C20.7137 3.232 20.8777 3.428 21.1017 3.628L22.7457 5.068C23.1137 5.388 23.4377 5.772 23.7177 6.22C23.9977 6.66 24.1377 7.184 24.1377 7.792C24.1377 8.272 24.0377 8.688 23.8377 9.04C23.6377 9.384 23.3617 9.648 23.0097 9.832C22.6657 10.016 22.2657 10.108 21.8097 10.108ZM25.1896 10V0.279999H27.6016C28.1856 0.279999 28.6496 0.387999 28.9936 0.603999C29.3456 0.812 29.6016 1.116 29.7616 1.516C29.9216 1.916 30.0016 2.4 30.0016 2.968C30.0016 3.48 29.9096 3.924 29.7256 4.3C29.5496 4.676 29.2856 4.968 28.9336 5.176C28.5816 5.376 28.1416 5.476 27.6136 5.476H26.5456V10H25.1896ZM26.5456 4.504H27.1696C27.5616 4.504 27.8696 4.46 28.0936 4.372C28.3176 4.284 28.4776 4.132 28.5736 3.916C28.6696 3.692 28.7176 3.38 28.7176 2.98C28.7176 2.516 28.6816 2.16 28.6096 1.912C28.5456 1.664 28.4056 1.492 28.1896 1.396C27.9736 1.3 27.6376 1.252 27.1816 1.252H26.5456V4.504ZM33.4392 10.108C32.7832 10.108 32.2592 9.98 31.8672 9.724C31.4752 9.468 31.1952 9.104 31.0272 8.632C30.8592 8.152 30.7752 7.592 30.7752 6.952V3.268C30.7752 2.628 30.8592 2.08 31.0272 1.624C31.2032 1.16 31.4832 0.808 31.8672 0.568C32.2592 0.32 32.7832 0.196 33.4392 0.196C34.0952 0.196 34.6152 0.32 34.9992 0.568C35.3832 0.816 35.6592 1.168 35.8272 1.624C36.0032 2.08 36.0912 2.628 36.0912 3.268V6.964C36.0912 7.596 36.0032 8.148 35.8272 8.62C35.6592 9.092 35.3832 9.46 34.9992 9.724C34.6152 9.98 34.0952 10.108 33.4392 10.108ZM33.4392 9.04C33.7992 9.04 34.0712 8.968 34.2552 8.824C34.4392 8.672 34.5632 8.464 34.6272 8.2C34.6912 7.928 34.7232 7.612 34.7232 7.252V2.992C34.7232 2.632 34.6912 2.324 34.6272 2.068C34.5632 1.804 34.4392 1.604 34.2552 1.468C34.0712 1.324 33.7992 1.252 33.4392 1.252C33.0792 1.252 32.8032 1.324 32.6112 1.468C32.4272 1.604 32.3032 1.804 32.2392 2.068C32.1752 2.324 32.1432 2.632 32.1432 2.992V7.252C32.1432 7.612 32.1752 7.928 32.2392 8.2C32.3032 8.464 32.4272 8.672 32.6112 8.824C32.8032 8.968 33.0792 9.04 33.4392 9.04ZM37.424 10V0.279999H39.38C40.028 0.279999 40.564 0.367999 40.988 0.543999C41.412 0.712 41.724 0.988 41.924 1.372C42.132 1.748 42.236 2.244 42.236 2.86C42.236 3.236 42.196 3.58 42.116 3.892C42.036 4.196 41.908 4.456 41.732 4.672C41.556 4.88 41.324 5.032 41.036 5.128L42.416 10H41.108L39.836 5.44H38.78V10H37.424ZM38.78 4.468H39.296C39.68 4.468 39.992 4.42 40.232 4.324C40.472 4.228 40.648 4.064 40.76 3.832C40.872 3.6 40.928 3.276 40.928 2.86C40.928 2.292 40.824 1.884 40.616 1.636C40.408 1.38 39.996 1.252 39.38 1.252H38.78V4.468ZM44.7146 10V1.288H43.0706V0.279999H47.6666V1.288H46.0706V10H44.7146Z" fill="#0F1A42"/>
</svg>
