<svg width="21" height="16" viewBox="0 0 21 16" fill="none" xmlns="http://www.w3.org/2000/svg">
<rect width="21" height="16" fill="#F5F5F5"/>
<g id="01_Home" clip-path="url(#clip0_0_1)">
<rect width="1440" height="3060" transform="translate(-248 -273)" fill="#FCFCFC"/>
<g id="News">
<g id="Post-3">
</g>
</g>
<g id="Group 528">
<g id="Group 118">
<g id="Menu">
<g id="Menu_2">
<g id="Rectangle 211" filter="url(#filter0_d_0_1)">
<mask id="path-1-outside-1_0_1" maskUnits="userSpaceOnUse" x="-248" y="-9" width="1440" height="37" fill="black">
<rect fill="white" x="-248" y="-9" width="1440" height="37"/>
<path d="M-248 -9H1192V27H-248V-9Z"/>
</mask>
<path d="M-248 -9H1192V27H-248V-9Z" fill="white" shape-rendering="crispEdges"/>
<path d="M1192 26H-248V28H1192V26Z" fill="#C4C4C4" fill-opacity="0.8" mask="url(#path-1-outside-1_0_1)"/>
</g>
</g>
</g>
</g>
<g id="Group 527">
<g id="Group 526">
<g id="Group 523">
<g id="Group 522">
<path id="Vector" d="M19.6 13.1972C19.4 14.3056 18.55 15.15 17.5 15.3083C15.85 15.5722 13.1 15.8889 10 15.8889C6.95 15.8889 4.2 15.5722 2.5 15.3083C1.45 15.15 0.6 14.3056 0.4 13.1972C0.2 11.9833 0 10.1889 0 7.97222C0 5.75556 0.2 3.96111 0.4 2.74722C0.6 1.63889 1.45 0.794444 2.5 0.636111C4.15 0.372222 6.9 0.0555553 10 0.0555553C13.1 0.0555553 15.8 0.372222 17.5 0.636111C18.55 0.794444 19.4 1.63889 19.6 2.74722C19.8 3.96111 20.05 5.75556 20.05 7.97222C20 10.1889 19.8 11.9833 19.6 13.1972Z" fill="#FF3D00"/>
<path id="Vector_2" d="M8 11.6667V4.27778L14 7.97222L8 11.6667Z" fill="white"/>
</g>
</g>
</g>
</g>
</g>
</g>
<defs>
<filter id="filter0_d_0_1" x="-250" y="-9" width="1444" height="41" filterUnits="userSpaceOnUse" color-interpolation-filters="sRGB">
<feFlood flood-opacity="0" result="BackgroundImageFix"/>
<feColorMatrix in="SourceAlpha" type="matrix" values="0 0 0 0 0 0 0 0 0 0 0 0 0 0 0 0 0 0 127 0" result="hardAlpha"/>
<feOffset dy="2"/>
<feGaussianBlur stdDeviation="1"/>
<feComposite in2="hardAlpha" operator="out"/>
<feColorMatrix type="matrix" values="0 0 0 0 0 0 0 0 0 0 0 0 0 0 0 0 0 0 0.1 0"/>
<feBlend mode="normal" in2="BackgroundImageFix" result="effect1_dropShadow_0_1"/>
<feBlend mode="normal" in="SourceGraphic" in2="effect1_dropShadow_0_1" result="shape"/>
</filter>
<clipPath id="clip0_0_1">
<rect width="1440" height="3060" fill="white" transform="translate(-248 -273)"/>
</clipPath>
</defs>
</svg>
