<svg width="69" height="21" viewBox="0 0 69 21" fill="none" xmlns="http://www.w3.org/2000/svg">
<path d="M2.21072 13.1818V4.46982H0.566719V3.46182H5.16272V4.46982H3.56672V13.1818H2.21072ZM8.60775 13.2898C7.90375 13.2898 7.36375 13.1498 6.98775 12.8698C6.61175 12.5898 6.35575 12.1978 6.21975 11.6938C6.08375 11.1818 6.01575 10.5858 6.01575 9.90582V3.46182H7.31175V9.96582C7.31175 10.3818 7.33975 10.7618 7.39575 11.1058C7.45175 11.4498 7.57175 11.7218 7.75575 11.9218C7.94775 12.1218 8.23175 12.2218 8.60775 12.2218C8.99175 12.2218 9.27575 12.1218 9.45975 11.9218C9.64375 11.7218 9.76375 11.4498 9.81975 11.1058C9.87575 10.7618 9.90375 10.3818 9.90375 9.96582V3.46182H11.1878V9.90582C11.1878 10.5858 11.1198 11.1818 10.9838 11.6938C10.8478 12.1978 10.5918 12.5898 10.2158 12.8698C9.84775 13.1498 9.31175 13.2898 8.60775 13.2898ZM8.99175 2.00982V0.677817H10.2878V2.00982H8.99175ZM6.92775 2.00982V0.677817H8.22375V2.00982H6.92775ZM12.6154 13.1818V3.46182H14.5714C15.2194 3.46182 15.7554 3.54982 16.1794 3.72582C16.6034 3.89382 16.9154 4.16982 17.1154 4.55382C17.3234 4.92982 17.4274 5.42582 17.4274 6.04182C17.4274 6.41782 17.3874 6.76182 17.3074 7.07382C17.2274 7.37782 17.0994 7.63782 16.9234 7.85382C16.7474 8.06182 16.5154 8.21382 16.2274 8.30982L17.6074 13.1818H16.2994L15.0274 8.62182H13.9714V13.1818H12.6154ZM13.9714 7.64982H14.4874C14.8714 7.64982 15.1834 7.60182 15.4234 7.50582C15.6634 7.40982 15.8394 7.24582 15.9514 7.01382C16.0634 6.78182 16.1194 6.45782 16.1194 6.04182C16.1194 5.47382 16.0154 5.06582 15.8074 4.81782C15.5994 4.56182 15.1874 4.43382 14.5714 4.43382H13.9714V7.64982ZM18.838 13.1818V3.46182H20.194V8.04582L22.426 3.46182H23.686L21.766 7.74582L23.998 13.1818H22.678L20.818 8.62182L20.194 9.74982V13.1818H18.838ZM24.7554 13.1818L24.9354 3.46182H26.2674L27.9834 11.3458L29.7114 3.46182H31.0314L31.2114 13.1818H30.1194L30.0114 6.12582L28.3674 13.1818H27.5994L25.9674 6.12582L25.8594 13.1818H24.7554ZM32.7013 13.1818V3.46182H36.4693V4.46982H34.0573V7.68582H36.0133V8.64582H34.0573V12.2098H36.4933V13.1818H32.7013ZM37.588 13.1818V3.46182H38.512L41.272 9.91782V3.46182H42.4V13.1818H41.536L38.74 6.54582V13.1818H37.588ZM43.9999 13.1818V3.46182H45.3319V13.1818H43.9999ZM49.1964 13.2898C48.6364 13.2898 48.1684 13.1698 47.7924 12.9298C47.4244 12.6898 47.1444 12.3578 46.9524 11.9338C46.7604 11.5098 46.6484 11.0178 46.6164 10.4578L47.8164 10.1338C47.8404 10.4778 47.8924 10.8098 47.9724 11.1298C48.0604 11.4498 48.2004 11.7138 48.3924 11.9218C48.5844 12.1218 48.8524 12.2218 49.1964 12.2218C49.5484 12.2218 49.8124 12.1258 49.9884 11.9338C50.1724 11.7338 50.2644 11.4498 50.2644 11.0818C50.2644 10.6418 50.1644 10.2898 49.9644 10.0258C49.7644 9.75382 49.5124 9.48182 49.2084 9.20982L47.5764 7.76982C47.2564 7.48982 47.0204 7.18582 46.8684 6.85782C46.7164 6.52182 46.6404 6.10982 46.6404 5.62182C46.6404 4.90982 46.8444 4.35782 47.2524 3.96582C47.6604 3.57382 48.2164 3.37782 48.9204 3.37782C49.3044 3.37782 49.6404 3.42982 49.9284 3.53382C50.2244 3.62982 50.4684 3.78182 50.6604 3.98982C50.8604 4.19782 51.0164 4.46182 51.1284 4.78182C51.2484 5.09382 51.3284 5.46182 51.3684 5.88582L50.2164 6.19782C50.1924 5.87782 50.1444 5.58582 50.0724 5.32182C50.0004 5.04982 49.8724 4.83382 49.6884 4.67382C49.5124 4.50582 49.2564 4.42182 48.9204 4.42182C48.5844 4.42182 48.3204 4.51382 48.1284 4.69782C47.9444 4.87382 47.8524 5.13782 47.8524 5.48982C47.8524 5.78582 47.9004 6.02982 47.9964 6.22182C48.1004 6.41382 48.2644 6.60982 48.4884 6.80982L50.1324 8.24982C50.5004 8.56982 50.8244 8.95382 51.1044 9.40182C51.3844 9.84182 51.5244 10.3658 51.5244 10.9738C51.5244 11.4538 51.4244 11.8698 51.2244 12.2218C51.0244 12.5658 50.7484 12.8298 50.3964 13.0138C50.0524 13.1978 49.6524 13.2898 49.1964 13.2898ZM53.6443 13.1818V4.46982H52.0003V3.46182H56.5963V4.46982H55.0003V13.1818H53.6443ZM56.9819 13.1818L59.0459 3.46182H60.3539L62.4299 13.1818H61.1459L60.7019 10.7338H58.7219L58.2539 13.1818H56.9819ZM58.9019 9.76182H60.5219L59.7059 5.38182L58.9019 9.76182ZM63.4162 13.1818V3.46182H64.3402L67.1002 9.91782V3.46182H68.2282V13.1818H67.3642L64.5682 6.54582V13.1818H63.4162Z" fill="#00843D"/>
<path d="M42.4695 20.2538C42.0962 20.2538 41.7842 20.1738 41.5335 20.0138C41.2882 19.8538 41.1015 19.6325 40.9735 19.3498C40.8455 19.0672 40.7708 18.7392 40.7495 18.3658L41.5495 18.1498C41.5655 18.3792 41.6002 18.6005 41.6535 18.8138C41.7122 19.0272 41.8055 19.2032 41.9335 19.3418C42.0615 19.4752 42.2402 19.5418 42.4695 19.5418C42.7042 19.5418 42.8802 19.4778 42.9975 19.3498C43.1202 19.2165 43.1815 19.0272 43.1815 18.7818C43.1815 18.4885 43.1148 18.2538 42.9815 18.0778C42.8482 17.8965 42.6802 17.7152 42.4775 17.5338L41.3895 16.5738C41.1762 16.3872 41.0188 16.1845 40.9175 15.9658C40.8162 15.7418 40.7655 15.4672 40.7655 15.1418C40.7655 14.6672 40.9015 14.2992 41.1735 14.0378C41.4455 13.7765 41.8162 13.6458 42.2855 13.6458C42.5415 13.6458 42.7655 13.6805 42.9575 13.7498C43.1548 13.8138 43.3175 13.9152 43.4455 14.0538C43.5788 14.1925 43.6828 14.3685 43.7575 14.5818C43.8375 14.7898 43.8908 15.0352 43.9175 15.3178L43.1495 15.5258C43.1335 15.3125 43.1015 15.1178 43.0535 14.9418C43.0055 14.7605 42.9202 14.6165 42.7975 14.5098C42.6802 14.3978 42.5095 14.3418 42.2855 14.3418C42.0615 14.3418 41.8855 14.4032 41.7575 14.5258C41.6348 14.6432 41.5735 14.8192 41.5735 15.0538C41.5735 15.2512 41.6055 15.4138 41.6695 15.5418C41.7388 15.6698 41.8482 15.8005 41.9975 15.9338L43.0935 16.8938C43.3388 17.1072 43.5548 17.3632 43.7415 17.6618C43.9282 17.9552 44.0215 18.3045 44.0215 18.7098C44.0215 19.0298 43.9548 19.3072 43.8215 19.5418C43.6882 19.7712 43.5042 19.9472 43.2695 20.0698C43.0402 20.1925 42.7735 20.2538 42.4695 20.2538ZM44.7228 20.1818V13.7018H46.3307C46.7201 13.7018 47.0294 13.7738 47.2588 13.9178C47.4934 14.0565 47.6641 14.2592 47.7708 14.5258C47.8774 14.7925 47.9308 15.1152 47.9308 15.4938C47.9308 15.8352 47.8694 16.1312 47.7468 16.3818C47.6294 16.6325 47.4534 16.8272 47.2188 16.9658C46.9841 17.0992 46.6908 17.1658 46.3388 17.1658H45.6268V20.1818H44.7228ZM45.6268 16.5178H46.0428C46.3041 16.5178 46.5094 16.4885 46.6588 16.4298C46.8081 16.3712 46.9148 16.2698 46.9788 16.1258C47.0428 15.9765 47.0748 15.7685 47.0748 15.5018C47.0748 15.1925 47.0508 14.9552 47.0028 14.7898C46.9601 14.6245 46.8668 14.5098 46.7228 14.4458C46.5788 14.3818 46.3548 14.3498 46.0508 14.3498H45.6268V16.5178ZM50.2225 20.2538C49.7852 20.2538 49.4358 20.1685 49.1745 19.9978C48.9132 19.8272 48.7265 19.5845 48.6145 19.2698C48.5025 18.9498 48.4465 18.5765 48.4465 18.1498V15.6938C48.4465 15.2672 48.5025 14.9018 48.6145 14.5978C48.7318 14.2885 48.9185 14.0538 49.1745 13.8938C49.4358 13.7285 49.7852 13.6458 50.2225 13.6458C50.6598 13.6458 51.0065 13.7285 51.2625 13.8938C51.5185 14.0592 51.7025 14.2938 51.8145 14.5978C51.9318 14.9018 51.9905 15.2672 51.9905 15.6938V18.1578C51.9905 18.5792 51.9318 18.9472 51.8145 19.2618C51.7025 19.5765 51.5185 19.8218 51.2625 19.9978C51.0065 20.1685 50.6598 20.2538 50.2225 20.2538ZM50.2225 19.5418C50.4625 19.5418 50.6438 19.4938 50.7665 19.3978C50.8892 19.2965 50.9718 19.1578 51.0145 18.9818C51.0572 18.8005 51.0785 18.5898 51.0785 18.3498V15.5098C51.0785 15.2698 51.0572 15.0645 51.0145 14.8938C50.9718 14.7178 50.8892 14.5845 50.7665 14.4938C50.6438 14.3978 50.4625 14.3498 50.2225 14.3498C49.9825 14.3498 49.7985 14.3978 49.6705 14.4938C49.5478 14.5845 49.4652 14.7178 49.4225 14.8938C49.3798 15.0645 49.3585 15.2698 49.3585 15.5098V18.3498C49.3585 18.5898 49.3798 18.8005 49.4225 18.9818C49.4652 19.1578 49.5478 19.2965 49.6705 19.3978C49.7985 19.4938 49.9825 19.5418 50.2225 19.5418ZM52.879 20.1818V13.7018H54.183C54.615 13.7018 54.9723 13.7605 55.255 13.8778C55.5377 13.9898 55.7457 14.1738 55.879 14.4298C56.0177 14.6805 56.087 15.0112 56.087 15.4218C56.087 15.6725 56.0603 15.9018 56.007 16.1098C55.9537 16.3125 55.8683 16.4858 55.751 16.6298C55.6337 16.7685 55.479 16.8698 55.287 16.9338L56.207 20.1818H55.335L54.487 17.1418H53.783V20.1818H52.879ZM53.783 16.4938H54.127C54.383 16.4938 54.591 16.4618 54.751 16.3978C54.911 16.3338 55.0283 16.2245 55.103 16.0698C55.1777 15.9152 55.215 15.6992 55.215 15.4218C55.215 15.0432 55.1457 14.7712 55.007 14.6058C54.8683 14.4352 54.5937 14.3498 54.183 14.3498H53.783V16.4938ZM57.7394 20.1818V14.3738H56.6434V13.7018H59.7074V14.3738H58.6434V20.1818H57.7394ZM62.8723 20.1818V14.3738H61.7763V13.7018H64.8403V14.3738H63.7763V20.1818H62.8723ZM66.5929 20.1818L65.1449 13.7018H65.9929L67.0169 18.4778L67.9929 13.7018H68.8169L67.3849 20.1818H66.5929Z" fill="#BFB55C"/>
</svg>
