<svg width="309" height="44" viewBox="0 0 309 44" fill="none" xmlns="http://www.w3.org/2000/svg">
<path d="M24 0L32.158 13.5L48 16.8065L37.2 28.4565L38.8328 44L24 37.7L9.16718 44L10.8 28.4565L0 16.8065L15.8419 13.5L24 0Z" fill="#DFB300"/>
<path d="M91.5 0L100.168 13.5L117 16.8065L105.525 28.4565L107.26 44L91.5 37.7L75.7401 44L77.475 28.4565L66 16.8065L82.8321 13.5L91.5 0Z" fill="#DFB300"/>
<path d="M157 0L165.498 13.5L182 16.8065L170.75 28.4565L172.451 44L157 37.7L141.549 44L143.25 28.4565L132 16.8065L148.502 13.5L157 0Z" fill="#DFB300"/>
<path d="M217.5 0L225.828 13.5L242 16.8065L230.975 28.4565L232.642 44L217.5 37.7L202.358 44L204.025 28.4565L193 16.8065L209.172 13.5L217.5 0Z" fill="#DFB300"/>
<path d="M282 0L291.178 13.5L309 16.8065L296.85 28.4565L298.687 44L282 37.7L265.313 44L267.15 28.4565L255 16.8065L272.822 13.5L282 0Z" fill="#626262"/>
<path d="M265.313 44L282 37.7V0L272.822 13.5L255 16.8065L267.15 28.4564L265.313 44Z" fill="#DFB300"/>
</svg>
