<svg width="64" height="64" viewBox="0 0 64 64" fill="none" xmlns="http://www.w3.org/2000/svg">
<g id="&#208;&#160;&#208;&#181;&#209;&#129;&#209;&#131;&#209;&#128;&#209;&#129; 6 1" clip-path="url(#clip0_109_4472)">
<g id="&#208;&#161;&#208;&#187;&#208;&#190;&#208;&#185; 2">
<g id="1">
<path id="Vector" fill-rule="evenodd" clip-rule="evenodd" d="M62.5538 23.3285C64.9276 32.9529 64.9276 45.6804 58.3405 53.5564C47.8075 66.1579 27.1345 66.1579 13.3 59.7626C8.69378 57.6519 3.55303 54.6118 0.927627 48.7363C-1.17898 44.1053 0.660371 38.1038 2.76698 33.6145C5.80313 27.6914 9.63251 22.2116 14.1489 17.327C19.6356 10.9317 30.9546 1.02379 39.6483 0.0944268C41.6898 -0.154075 43.7609 0.0723135 45.7009 0.756007C56.2339 4.06391 60.4472 14.6177 62.5538 23.3285Z" fill="#0088FF"/>
<path id="Vector_2" fill-rule="evenodd" clip-rule="evenodd" d="M37.0071 41.5693H39.6797L38.8622 38.9072V32.1339C38.8752 32.0117 38.8639 31.8882 38.829 31.7704C38.7941 31.6527 38.7362 31.543 38.6588 31.4478C38.5813 31.3526 38.4857 31.2737 38.3776 31.2157C38.2695 31.1577 38.151 31.1218 38.029 31.11C37.8924 31.1007 37.7554 31.1208 37.6272 31.169C37.499 31.2171 37.3826 31.2922 37.2858 31.3892C37.189 31.4862 37.114 31.6029 37.0659 31.7313C37.0179 31.8598 36.9978 31.997 37.0071 32.1339V41.5693ZM18.3778 41.5693H21.0346V32.1181C21.05 31.998 21.0413 31.876 21.0092 31.7593C20.9771 31.6426 20.9221 31.5334 20.8475 31.4381C20.7729 31.3428 20.6802 31.2634 20.5746 31.2043C20.4691 31.1453 20.3529 31.1079 20.2328 31.0943C20.095 31.0826 19.9562 31.1009 19.8261 31.148C19.696 31.1951 19.5776 31.2698 19.479 31.3671C19.3805 31.4644 19.3041 31.5819 19.2551 31.7115C19.2061 31.8411 19.1857 31.9798 19.1953 32.1181V38.8915L18.3778 41.5693ZM51.7534 41.5693C51.9116 41.5793 52.0613 41.6448 52.1762 41.7542C52.2912 41.8636 52.3641 42.01 52.3822 42.1679C52.3822 42.5932 52.1621 42.987 51.7534 42.987H51.156V46.1373C51.1377 46.3511 51.0436 46.5512 50.8907 46.7015C50.7379 46.8517 50.5364 46.9422 50.3227 46.9564H49.3166C49.103 46.9422 48.9015 46.8517 48.7486 46.7015C48.5958 46.5512 48.5017 46.3511 48.4834 46.1373V48.1851C48.4687 48.3975 48.3779 48.5974 48.2276 48.7479C48.0774 48.8985 47.8779 48.9895 47.6659 49.0042H46.8484C46.6046 49.0307 46.3602 48.9595 46.1687 48.806C45.9772 48.6525 45.8542 48.4292 45.8266 48.1851V42.987H42.9653C42.5409 42.987 42.3365 43.2232 41.7234 43.2232C41.3934 43.1232 41.0573 43.0442 40.7172 42.987H37.0071V56.124C37.003 56.7202 36.7648 57.2907 36.3441 57.7123C35.9234 58.1338 35.354 58.3724 34.759 58.3766C34.4496 58.3935 34.1398 58.3483 33.848 58.2437C33.5563 58.1391 33.2883 57.9771 33.0598 57.7673C32.8314 57.5574 32.647 57.304 32.5177 57.0218C32.3883 56.7396 32.3165 56.4344 32.3065 56.124V45.8696C32.2966 45.2655 32.1193 44.6761 31.7945 44.1671C31.4697 43.6581 31.0102 43.2495 30.4672 42.987H27.5903C27.0472 43.2495 26.5877 43.6581 26.2629 44.1671C25.9381 44.6761 25.7609 45.2655 25.7509 45.8696V51.8238C25.7467 52.4226 25.5064 52.9955 25.0823 53.4175C24.6582 53.8395 24.0848 54.0763 23.4871 54.0763C23.1776 54.0932 22.8679 54.0481 22.5761 53.9434C22.2843 53.8388 22.0163 53.6768 21.7879 53.467C21.5594 53.2572 21.3751 53.0037 21.2458 52.7215C21.1164 52.4394 21.0446 52.1341 21.0346 51.8238V42.987H17.293C16.9522 43.0864 16.6057 43.1653 16.2554 43.2232C15.8624 43.2232 15.4537 42.987 15.0449 42.987H12.2309V48.1221C12.2405 48.2321 12.2259 48.3428 12.1882 48.4466C12.1505 48.5503 12.0906 48.6445 12.0127 48.7226C11.9348 48.8007 11.8408 48.8607 11.7372 48.8984C11.6337 48.9362 11.5232 48.9508 11.4134 48.9412H10.5959C10.3828 48.9298 10.1814 48.8399 10.0304 48.6886C9.87952 48.5374 9.78975 48.3356 9.77841 48.1221V46.0743C9.7601 46.2881 9.66601 46.4882 9.51317 46.6385C9.36033 46.7887 9.15884 46.8792 8.9452 46.8934H7.86045C7.64961 46.8756 7.45187 46.7836 7.30224 46.6336C7.15262 46.4837 7.06077 46.2856 7.04296 46.0743V42.9239H6.49273C6.08399 42.9239 5.86389 42.5301 5.86389 42.1048C5.88201 41.947 5.95492 41.8006 6.06987 41.6912C6.18482 41.5818 6.3345 41.5163 6.49273 41.5063H7.10585V38.4977C7.09723 38.3924 7.11025 38.2866 7.14409 38.1866C7.17794 38.0866 7.2319 37.9947 7.30262 37.9164C7.37335 37.8382 7.45935 37.7753 7.5553 37.7317C7.65125 37.688 7.7551 37.6646 7.86045 37.6628H8.88231C8.99415 37.6532 9.10672 37.6682 9.21216 37.7068C9.31759 37.7454 9.41334 37.8065 9.49271 37.8861C9.57207 37.9656 9.63314 38.0615 9.67163 38.1672C9.71011 38.2728 9.7251 38.3856 9.71552 38.4977V36.4499C9.72333 36.2352 9.81196 36.0313 9.96361 35.8794C10.1153 35.7274 10.3187 35.6386 10.533 35.6308H11.3505C11.4609 35.6183 11.5727 35.6308 11.6776 35.6675C11.7825 35.7043 11.8777 35.7642 11.9563 35.8429C12.0349 35.9216 12.0947 36.0171 12.1313 36.1222C12.168 36.2273 12.1805 36.3393 12.168 36.4499V41.5693H14.1488C14.1237 41.015 14.2662 40.466 14.5576 39.9941C14.5576 39.5845 14.7777 39.175 14.7777 38.5607V33.8351C14.7858 32.5004 15.0576 31.1805 15.5774 29.9515C16.0971 28.7225 16.8545 27.6088 17.8059 26.6746C18.7574 25.7403 19.8839 25.004 21.1207 24.5082C22.3575 24.0123 23.68 23.7666 25.012 23.7854H33.3284C35.9887 23.7895 38.5391 24.8492 40.4216 26.7325C42.3042 28.6158 43.3658 31.1696 43.3741 33.8351V38.5607C43.3787 39.0667 43.52 39.562 43.7828 39.9941C43.9506 40.2164 44.0564 40.4794 44.0895 40.7561C44.1227 41.0329 44.0819 41.3135 43.9715 41.5693H45.8266V36.4499C45.8542 36.2058 45.9772 35.9825 46.1687 35.829C46.3602 35.6755 46.6046 35.6043 46.8484 35.6308H47.6659C47.879 35.6422 48.0804 35.7321 48.2314 35.8833C48.3823 36.0346 48.4721 36.2364 48.4834 36.4499V38.4977C48.4738 38.3856 48.4888 38.2728 48.5273 38.1672C48.5658 38.0615 48.6269 37.9656 48.7062 37.8861C48.7856 37.8065 48.8813 37.7454 48.9868 37.7068C49.0922 37.6682 49.2048 37.6532 49.3166 37.6628H50.307C50.4189 37.6532 50.5314 37.6682 50.6369 37.7068C50.7423 37.7454 50.8381 37.8065 50.9174 37.8861C50.9968 37.9656 51.0578 38.0615 51.0963 38.1672C51.1348 38.2728 51.1498 38.3856 51.1402 38.4977V41.5693H51.7534ZM29.241 21.8951C27.6749 21.9548 26.1269 21.5441 24.7955 20.7158C23.4642 19.8874 22.4104 18.6792 21.7694 17.2464C21.1284 15.8135 20.9295 14.2213 21.1982 12.6744C21.4669 11.1274 22.191 9.69624 23.2775 8.56463C24.3639 7.43302 25.7632 6.65264 27.2956 6.32369C28.8279 5.99474 30.4234 6.13225 31.8772 6.71855C33.331 7.30484 34.5767 8.31317 35.4544 9.61405C36.3321 10.9149 36.8016 12.449 36.8027 14.0192C36.8042 16.0572 36.0172 18.0164 34.607 19.4851C33.1969 20.9539 31.2735 21.8177 29.241 21.8951Z" fill="#18457C"/>
<path id="Vector_3" fill-rule="evenodd" clip-rule="evenodd" d="M40.1199 45.7907H42.8082L41.9907 43.1287V36.3553C42.0037 36.234 41.9923 36.1114 41.9572 35.9945C41.9221 35.8777 41.864 35.7691 41.7864 35.6752C41.7087 35.5812 41.613 35.5038 41.505 35.4474C41.397 35.3911 41.2788 35.357 41.1575 35.3472C41.021 35.3358 40.8837 35.3538 40.7548 35.3999C40.6258 35.4461 40.5083 35.5194 40.41 35.6149C40.3116 35.7104 40.2349 35.8259 40.1849 35.9537C40.1348 36.0814 40.1127 36.2183 40.1199 36.3553V45.7907ZM21.5063 45.7907H24.1631V36.3396C24.1762 36.2195 24.1653 36.098 24.1312 35.9821C24.0971 35.8663 24.0404 35.7584 23.9643 35.6646C23.8883 35.5709 23.7945 35.4931 23.6883 35.436C23.5821 35.3788 23.4656 35.3433 23.3456 35.3315C23.2104 35.3224 23.0749 35.3421 22.9478 35.3893C22.8208 35.4366 22.7052 35.5103 22.6087 35.6055C22.5121 35.7008 22.4368 35.8154 22.3877 35.942C22.3386 36.0685 22.3168 36.204 22.3238 36.3396V43.1129L21.5063 45.7907ZM54.8819 45.7907C55.0409 45.8018 55.1905 45.87 55.3032 45.9829C55.4159 46.0958 55.484 46.2458 55.495 46.4051C55.495 46.8304 55.2906 47.2242 54.8819 47.2242H54.2688V50.3745C54.2541 50.5869 54.1632 50.7868 54.013 50.9374C53.8628 51.0879 53.6632 51.1789 53.4513 51.1936H52.4294C52.2158 51.1794 52.0143 51.0889 51.8614 50.9387C51.7086 50.7884 51.6145 50.5883 51.5962 50.3745V52.4223C51.5815 52.6347 51.4907 52.8346 51.3404 52.9851C51.1902 53.1357 50.9907 53.2267 50.7787 53.2414H49.9612C49.7174 53.2679 49.473 53.1967 49.2815 53.0432C49.09 52.8897 48.967 52.6664 48.9393 52.4223V47.2557H46.0781C45.6537 47.2557 45.465 47.4762 44.8362 47.4762C44.5064 47.3792 44.1702 47.3055 43.83 47.2557H40.1199V60.3928C40.1158 60.9889 39.8776 61.5594 39.4569 61.981C39.0362 62.4025 38.4668 62.6412 37.8718 62.6453C37.5628 62.6601 37.254 62.6134 36.9631 62.508C36.6723 62.4026 36.4051 62.2405 36.1771 62.031C35.9491 61.8216 35.7648 61.569 35.6347 61.2878C35.5046 61.0067 35.4314 60.7024 35.4193 60.3928V50.1068C35.4036 49.5081 35.2236 48.9254 34.8992 48.4224C34.5747 47.9195 34.1183 47.5158 33.58 47.2557H30.703C30.1611 47.5197 29.7026 47.9286 29.378 48.4373C29.0534 48.946 28.8754 49.5346 28.8637 50.1383V56.0767C28.8474 56.6646 28.6039 57.2232 28.1845 57.6346C27.765 58.046 27.2025 58.2781 26.6156 58.282C26.3056 58.3011 25.995 58.2575 25.7023 58.1537C25.4095 58.0499 25.1407 57.888 24.9118 57.6778C24.6829 57.4675 24.4986 57.2132 24.37 56.93C24.2413 56.6468 24.171 56.3405 24.1631 56.0295V47.2557H20.4373C20.1016 47.3506 19.7603 47.4243 19.4154 47.4762C19.0067 47.4762 18.5979 47.2557 18.1892 47.2557H15.3437V52.3908C15.3562 52.5014 15.3437 52.6134 15.307 52.7185C15.2704 52.8236 15.2105 52.919 15.132 52.9978C15.0534 53.0765 14.9581 53.1364 14.8533 53.1732C14.7484 53.2099 14.6366 53.2224 14.5262 53.2099H13.7087C13.4956 53.1985 13.2942 53.1086 13.1432 52.9574C12.9923 52.8061 12.9025 52.6043 12.8912 52.3908V50.343C12.8734 50.5543 12.7815 50.7524 12.6319 50.9023C12.4823 51.0523 12.2846 51.1443 12.0737 51.1621H11.0047C10.7938 51.1443 10.5961 51.0523 10.4465 50.9023C10.2969 50.7524 10.205 50.5543 10.1872 50.343V47.2557H9.62124C9.2125 47.2557 8.97668 46.8619 8.97668 46.4366C8.99486 46.2746 9.06945 46.1242 9.18733 46.0118C9.30522 45.8995 9.45886 45.8323 9.62124 45.8222H10.2186V42.7191C10.2098 42.6112 10.2237 42.5027 10.2594 42.4006C10.2951 42.2984 10.3519 42.205 10.426 42.1262C10.5002 42.0475 10.59 41.9853 10.6897 41.9436C10.7894 41.9019 10.8967 41.8817 11.0047 41.8843H12.0423C12.1528 41.8771 12.2637 41.8939 12.3672 41.9335C12.4707 41.9731 12.5644 42.0347 12.642 42.1139C12.7196 42.1932 12.7792 42.2883 12.8168 42.3927C12.8544 42.4971 12.869 42.6085 12.8598 42.7191V40.6714C12.8676 40.4566 12.9562 40.2528 13.1078 40.1008C13.2595 39.9489 13.4629 39.8601 13.6772 39.8523H14.4947C14.6051 39.8397 14.7169 39.8523 14.8218 39.889C14.9267 39.9257 15.022 39.9857 15.1005 40.0644C15.1791 40.1431 15.2389 40.2386 15.2756 40.3436C15.3122 40.4487 15.3248 40.5608 15.3122 40.6714V45.7907H17.1673C17.1422 45.2364 17.2847 44.6874 17.576 44.2155C17.576 43.8217 17.7804 43.4122 17.7804 42.7821V38.0565C17.7907 36.7232 18.064 35.405 18.5846 34.1778C19.1053 32.9507 19.863 31.8388 20.8142 30.9062C21.7654 29.9737 22.8913 29.2388 24.1271 28.7439C25.3628 28.249 26.6841 28.0039 28.0148 28.0226H36.4255C39.0829 28.0226 41.6316 29.0792 43.5122 30.9605C45.3927 32.8418 46.4513 35.3939 46.4554 38.0565V42.7821C46.4624 43.2878 46.6035 43.7825 46.8642 44.2155C47.0345 44.4364 47.1431 44.6987 47.179 44.9754C47.215 45.2522 47.1768 45.5336 47.0686 45.7907H48.9079V40.6714C48.9356 40.4272 49.0586 40.204 49.2501 40.0505C49.4416 39.897 49.686 39.8257 49.9298 39.8523H50.7473C50.9604 39.8636 51.1618 39.9536 51.3127 40.1048C51.4636 40.256 51.5534 40.4578 51.5648 40.6714V42.7191C51.5578 42.6077 51.5747 42.4961 51.6141 42.3916C51.6535 42.2872 51.7147 42.1924 51.7935 42.1134C51.8723 42.0345 51.9669 41.9732 52.0711 41.9337C52.1753 41.8942 52.2868 41.8773 52.398 41.8843H53.4513C53.5618 41.8771 53.6726 41.8939 53.7761 41.9335C53.8797 41.9731 53.9734 42.0347 54.051 42.1139C54.1286 42.1932 54.1882 42.2883 54.2258 42.3927C54.2634 42.4971 54.278 42.6085 54.2688 42.7191V45.7907H54.8819ZM32.3537 26.1166C30.8066 26.1573 29.2824 25.7349 27.9761 24.9032C26.6698 24.0716 25.6406 22.8686 25.0202 21.4479C24.3997 20.0272 24.2162 18.4534 24.493 16.9277C24.7697 15.4019 25.4943 13.9935 26.574 12.8825C27.6538 11.7715 29.0396 11.0083 30.5545 10.6904C32.0693 10.3726 33.6443 10.5146 35.0782 11.0982C36.5121 11.6819 37.7398 12.6807 38.6042 13.967C39.4687 15.2533 39.9307 16.7687 39.9312 18.3194C39.9319 20.3524 39.1402 22.3052 37.7247 23.7617C36.3092 25.2182 34.382 26.0632 32.3537 26.1166Z" fill="white"/>
</g>
</g>
</g>
<defs>
<clipPath id="clip0_109_4472">
<rect width="64" height="64" fill="white"/>
</clipPath>
</defs>
</svg>
