<svg width="77" height="66" viewBox="0 0 77 66" fill="none" xmlns="http://www.w3.org/2000/svg">
<g id="&#208;&#160;&#208;&#181;&#209;&#129;&#209;&#131;&#209;&#128;&#209;&#129; 2 2" clip-path="url(#clip0_109_4466)">
<g id="&#208;&#161;&#208;&#187;&#208;&#190;&#208;&#185; 2">
<g id="1">
<path id="Vector" fill-rule="evenodd" clip-rule="evenodd" d="M6.31519 59.4981C0.489274 55.0369 -0.379088 47.6174 0.126141 41.1314C0.710312 38.0781 0.773465 37.5245 1.61025 33.9966C4.92581 21.6414 14.9041 3.79675 28.0874 0.711895C40.4813 -2.30968 52.1015 4.84085 61.322 12.7982L61.5904 13.0038C70.2424 21.2301 79.8417 35.1515 76.2104 47.8073C72.5791 60.4631 52.1015 64.7186 41.0497 65.5887C30.7083 66.6644 14.3041 65.9842 6.31519 59.4981Z" fill="#0088FF"/>
<path id="Vector_2" fill-rule="evenodd" clip-rule="evenodd" d="M61.6853 21.5941C61.6853 22.0054 61.4642 22.211 61.2748 22.211H59.6959C59.2697 22.211 59.2697 22.0054 59.2697 21.7997L59.0644 11.9124C59.0644 11.5011 59.2696 11.2954 59.4749 11.2954H61.0537C61.4642 11.2954 61.4642 11.5011 61.4642 11.7067L61.6853 21.5941ZM58.4171 21.7997C58.4061 21.9077 58.3572 22.0084 58.2792 22.0837C58.2011 22.159 58.0989 22.2041 57.9908 22.211H56.4119C56.0015 22.211 56.0015 22.0054 56.0015 21.7997L55.7962 11.9124C55.8031 11.8082 55.8464 11.7098 55.9187 11.6346C55.9909 11.5593 56.0873 11.512 56.1909 11.5011L57.8487 11.2954C58.2592 11.5011 58.2592 11.5011 58.2592 11.9124L58.4171 21.7997ZM42.7708 22.4009C42.7708 22.828 42.7708 22.828 42.3445 22.828L40.7656 23.0178C40.3552 23.0178 40.3552 22.828 40.3552 22.4009L40.1499 12.735C40.1499 12.3237 40.3552 12.118 40.5762 12.118H42.155C42.5655 12.118 42.5655 12.3237 42.7708 12.735V22.4009ZM39.471 22.6224C39.4596 22.7287 39.4102 22.8274 39.3318 22.9001C39.2534 22.9728 39.1515 23.0146 39.0447 23.0178H37.4659C37.0554 23.0178 37.0554 22.828 37.0554 22.6224L36.8343 12.735C36.8343 12.3237 37.0554 12.118 37.2606 12.118H38.8395C39.25 12.118 39.25 12.3237 39.25 12.735L39.471 22.6224ZM10.2309 56.1919C19.9092 56.3817 24.851 62.3616 40.6867 60.0993C44.9905 59.6236 49.3194 59.4123 53.649 59.4665C54.1018 59.4892 54.5495 59.3621 54.9232 59.1049C55.2969 58.8476 55.5759 58.4744 55.7173 58.0428C56.333 54.7364 58.1802 51.2403 58.1802 44.4378C58.1802 36.6228 54.6752 31.2599 54.6752 24.6789C54.6782 22.6837 54.541 20.6908 54.2647 18.7149C54.6752 18.7149 54.8963 18.4934 54.6752 18.0979V15.6142C54.6752 15.2029 54.6752 14.9972 54.2647 14.9972L44.397 15.2029C44.313 15.1893 44.2271 15.1958 44.1462 15.222C44.0652 15.2482 43.9917 15.2933 43.9315 15.3535C43.8714 15.4138 43.8264 15.4875 43.8003 15.5685C43.7742 15.6496 43.7676 15.7358 43.7812 15.8199V18.4934C43.9865 18.4934 43.9865 18.7149 44.1917 18.9047C44.8075 22.0687 45.8495 27.7638 43.576 28.3966C35.6818 36.2273 42.755 43.631 38.8395 40.3405C32.8715 34.0126 21.9775 37.6669 21.9775 37.6669C18.8198 32.304 11.8887 33.3323 10.0414 33.9493C9.95751 33.9395 9.87248 33.9487 9.79252 33.976C9.71255 34.0033 9.63968 34.0481 9.57919 34.1072C9.5187 34.1663 9.47212 34.2382 9.44283 34.3176C9.41355 34.397 9.4023 34.482 9.4099 34.5663V55.5591C9.4099 55.9704 9.8204 56.1919 10.2309 56.1919Z" fill="#18457C"/>
<path id="Vector_3" fill-rule="evenodd" clip-rule="evenodd" d="M64.8113 25.8336C64.8113 26.2449 64.5903 26.4664 64.4008 26.4664H62.822C62.3957 26.4664 62.3957 26.2449 62.3957 26.0393L62.2062 16.1519C62.2062 15.7564 62.3957 15.5508 62.6167 15.5508H64.1955C64.606 15.5508 64.606 15.7564 64.606 15.9621L64.8113 25.8336ZM61.5747 26.0393C61.5673 26.1501 61.52 26.2545 61.4416 26.3331C61.3632 26.4116 61.259 26.459 61.1484 26.4664H59.5695C59.1748 26.4664 59.1748 26.2449 59.1748 26.0393L58.9538 16.1519C58.9676 16.0492 59.0157 15.9543 59.0902 15.8825C59.1648 15.8106 59.2614 15.7662 59.3643 15.7564L60.9431 15.5508C61.3536 15.7564 61.3536 15.7564 61.3536 16.1519L61.5747 26.0393ZM45.9442 26.6562C45.9442 27.0676 45.9442 27.0676 45.5179 27.0676L43.939 27.2732C43.5285 27.2732 43.5285 27.0676 43.5285 26.6562L43.3233 16.9746C43.3233 16.5632 43.5285 16.3576 43.7338 16.3576H45.3126C45.7231 16.3576 45.7231 16.5632 45.9442 16.9746V26.6562ZM42.6286 26.8935C42.6209 27.0028 42.573 27.1053 42.4943 27.1812C42.4156 27.2572 42.3115 27.3012 42.2023 27.3049H40.6235C40.213 27.3049 40.213 27.0992 40.213 26.8935L40.0077 17.0062C40.0077 16.5949 40.213 16.3892 40.434 16.3892H42.0129C42.4234 16.3892 42.4234 16.5949 42.4234 17.0062L42.6286 26.8935ZM13.3727 60.4314C23.0352 60.6371 27.9928 66.6011 43.8285 64.3389C48.1279 63.8751 52.4511 63.6691 56.775 63.7219C57.2309 63.7491 57.6827 63.6219 58.0578 63.3608C58.4329 63.0997 58.7095 62.7199 58.8433 62.2823C59.459 58.9918 61.3221 55.4798 61.3221 48.6932C61.3221 40.8782 57.817 35.5153 57.817 28.9185C57.8114 26.9236 57.6743 24.9312 57.4065 22.9544C57.817 22.9544 58.0223 22.7488 57.817 22.3375V19.8696C57.817 19.4583 57.817 19.2526 57.4065 19.2526L47.5388 19.4583C47.4543 19.4453 47.3679 19.4523 47.2865 19.4784C47.2051 19.5046 47.1309 19.5494 47.0697 19.6092C47.0085 19.669 46.962 19.7422 46.9338 19.8231C46.9056 19.9039 46.8965 19.9902 46.9073 20.0752V22.7488C47.1125 22.7488 47.1125 22.9544 47.3178 23.1601C47.9493 26.2449 48.9755 32.0033 46.7178 32.6519C38.8236 40.4669 45.8968 47.8864 41.9813 44.58C36.0133 38.2521 25.1035 41.9065 25.1035 41.9065C21.9458 36.5594 15.0305 37.5877 13.1675 38.2047C13.0835 38.191 12.9975 38.1976 12.9166 38.2238C12.8357 38.25 12.7622 38.295 12.702 38.3553C12.6419 38.4155 12.5969 38.4892 12.5708 38.5703C12.5446 38.6514 12.5381 38.7375 12.5517 38.8216V59.8144C12.5517 60.2099 12.9622 60.4314 13.3727 60.4314Z" fill="white"/>
</g>
</g>
</g>
<defs>
<clipPath id="clip0_109_4466">
<rect width="77" height="66" fill="white"/>
</clipPath>
</defs>
</svg>
