<svg width="74" height="68" viewBox="0 0 74 68" fill="none" xmlns="http://www.w3.org/2000/svg">
<g id="&#208;&#160;&#208;&#181;&#209;&#129;&#209;&#131;&#209;&#128;&#209;&#129; 1 1" clip-path="url(#clip0_109_4460)">
<g id="&#208;&#161;&#208;&#187;&#208;&#190;&#208;&#185; 2">
<g id="1">
<path id="Vector" fill-rule="evenodd" clip-rule="evenodd" d="M53.1438 65.9241C34.2407 70.4157 -1.02133 46.1325 -1.85296e-05 25.6073C0.895865 13.0809 20.1215 5.67251 30.0121 2.9704C38.9709 0.429352 57.6412 -2.57696 65.4353 3.86514C79.7695 16.0157 75.0392 52.5746 58.537 63.5262C55.5448 65.3157 56.4407 65.1725 53.1617 65.9241H53.1438Z" fill="#0088FF"/>
<path id="Vector_2" fill-rule="evenodd" clip-rule="evenodd" d="M58.7342 29.2041L58.5192 28.7209L58.0533 29.2041H57.3366L58.0533 27.8083L56.8887 25.6967L55.7061 27.8083L56.6378 29.2041H55.7061L55.2402 28.7209L55.0252 29.2041H54.3085L55.0252 27.8083L53.8427 25.6967L52.678 27.8083L53.3768 29.2041H52.678L52.2122 28.7209L51.9613 29.2041H51.7463V27.8083L51.2804 26.3946L50.3487 23.3704L50.8146 24.0683L51.7463 21.9746L50.8146 19.6841L49.8649 21.3125L49.6499 20.1494L50.3487 18.9683L49.1841 16.4273H49.8649L50.8146 18.0557L51.7463 16.4273H52.9109L53.8427 18.0557L54.7744 16.4273H56.172L56.8887 18.0557L57.8025 16.4273H59.1284L59.8451 18.0557L60.9201 16.3915H61.6189L60.4543 18.9325L61.1531 20.1136L60.9201 21.2767L59.9167 19.6841L58.7342 22.0104L59.9167 24.1041L60.3826 23.1736L59.6659 25.9651L58.7342 27.7546L59.2 28.6673V29.1504L58.7342 29.2041ZM53.8427 19.6841L55.0252 22.0104L53.8427 24.1041L52.678 22.0104L53.8427 19.6841ZM51.2804 24.802L52.2122 22.7083L53.3768 24.802L52.2122 26.842L51.2804 24.802ZM54.3085 24.802L55.2402 22.7083L56.4228 24.802L55.2402 26.842L54.3085 24.802ZM56.8887 19.6841L58.0533 22.0104L56.8887 24.1041L55.7061 22.0104L56.8887 19.6841ZM58.5192 22.7083L59.4509 24.802L58.5192 26.842L57.3366 24.7662L58.5192 22.7083ZM59.4509 18.9683L58.5192 21.0799L57.3366 18.9325L58.5192 16.8567L59.4509 18.9683ZM53.3768 18.9683L52.2122 21.0799L51.2804 18.9683L52.2122 16.8925L53.3768 18.9683ZM56.4228 18.9683L55.2402 21.0799L54.3085 18.9683L55.2402 16.8925L56.4228 18.9683ZM42.877 14.0651C43.2436 14.3065 43.56 14.6164 43.8088 14.9778C43.9244 15.1531 43.986 15.3584 43.986 15.5683C43.986 15.7782 43.9244 15.9835 43.8088 16.1588L40.064 25.4641C39.8578 25.8521 39.5583 26.1829 39.1924 26.4265C38.8264 26.6702 38.4055 26.8191 37.9676 26.8599L33.2911 27.5578L30.263 43.663L30.0301 50.4272C30.0474 51.4771 29.8075 52.5153 29.3313 53.4515L25.0848 61.5757C24.9071 62.0506 24.5893 62.4606 24.1735 62.7513C23.7576 63.0421 23.2631 63.1999 22.7555 63.2041H22.5226L21.5908 62.9715C21.3148 63.0074 21.0343 62.9601 20.7853 62.8358C20.5363 62.7115 20.3301 62.5157 20.1933 62.2736C20.0765 62.0148 20.0162 61.7342 20.0162 61.4504C20.0162 61.1666 20.0765 60.886 20.1933 60.6273L24.386 51.5546C24.7131 50.8246 24.7948 50.0085 24.6189 49.2283L24.386 45.9715L22.7555 46.1862L19.7095 52.9504C19.1599 53.8716 18.3406 54.6023 17.3623 55.0441L8.95888 58.0683C8.49302 58.0683 8.27801 58.3009 8.00924 58.3009C7.61752 58.2959 7.23099 58.2107 6.87351 58.0507C6.51603 57.8906 6.19519 57.6591 5.93079 57.3704L5.21408 56.4578C4.74822 55.9746 4.53321 55.5094 4.74822 55.0441C4.79395 54.7854 4.90522 54.5427 5.07145 54.3391C5.23768 54.1355 5.45333 53.9777 5.69786 53.8809L13.8683 50.8567C14.2389 50.7177 14.5749 50.5001 14.8533 50.219C15.1317 49.9379 15.3458 49.5999 15.4809 49.2283L18.294 42.0704C18.294 42.0704 18.5448 42.0704 18.5448 41.8378L20.6412 32.7651L13.2233 38.9746C12.8993 39.2688 12.4786 39.4343 12.0407 39.4399C11.5463 39.3891 11.0692 39.2303 10.6431 38.9746L9.24556 38.0441C8.968 37.6849 8.73348 37.2945 8.54677 36.8809C8.55814 36.654 8.62857 36.434 8.75112 36.2425C8.87367 36.0511 9.04409 35.8949 9.24556 35.7894L23.0243 24.6051C23.4325 24.3129 23.9197 24.1507 24.4218 24.1399L31.5889 23.6746L35.1724 23.2094C35.3875 22.9767 36.1042 22.5115 36.1042 22.2788L39.831 14.8346C40.0622 14.444 40.4151 14.1398 40.8357 13.9685C41.2564 13.7973 41.7216 13.7683 42.1603 13.8862L42.877 14.0651ZM28.5429 21.9746C29.2118 21.9551 29.8674 21.7838 30.4601 21.4736C31.1979 21.2403 31.8747 20.8464 32.4417 20.3203C33.0087 19.7943 33.4518 19.1492 33.739 18.4315C34.125 17.777 34.3534 17.0419 34.4062 16.2841C34.4591 15.5264 34.335 14.7668 34.0436 14.0651C33.5993 12.9939 32.8568 12.0722 31.9041 11.4094C30.9514 10.7465 29.8285 10.3703 28.6683 10.3251C27.9262 10.235 27.1744 10.3789 26.5182 10.7367C25.1033 11.2262 23.9363 12.2491 23.2666 13.5867C22.597 14.9243 22.4778 16.4704 22.9347 17.8946C23.3431 19.0881 24.116 20.1236 25.1445 20.8555C26.173 21.5874 27.4054 21.9788 28.6683 21.9746H28.5429ZM48.2523 8.23146C48.2559 7.39898 48.012 6.58419 47.5514 5.89029C47.0909 5.19638 46.4346 4.6546 45.6655 4.33357C44.8964 4.01254 44.0492 3.9267 43.2313 4.08694C42.4133 4.24717 41.6614 4.64626 41.0707 5.23366C40.48 5.82106 40.0772 6.57033 39.9133 7.38656C39.7494 8.20278 39.8317 9.04923 40.1499 9.81869C40.468 10.5881 41.0077 11.246 41.7005 11.7089C42.3933 12.1717 43.2081 12.4188 44.0417 12.4188C44.5938 12.4212 45.1409 12.3146 45.6517 12.1052C46.1624 11.8959 46.6268 11.5878 47.018 11.1987C47.4092 10.8097 47.7197 10.3472 47.9315 9.83804C48.1433 9.32884 48.2523 8.78286 48.2523 8.23146ZM48.9332 15.6936H47.7865L51.2804 30.1167L59.6659 29.8841L62.7119 15.6936H48.9332Z" fill="#18457C"/>
<path id="Vector_3" fill-rule="evenodd" clip-rule="evenodd" d="M62.2997 34L62.0667 33.5348L61.6009 34H60.92L61.6188 32.6042L60.4542 30.5105L59.2895 32.6042L60.2033 34H59.2895L58.8237 33.5348L58.5907 34H57.874L58.5728 32.6042L57.3365 30.5105L56.1539 32.6042L56.8706 34H56.1539L55.6881 33.5348L55.5447 34H55.3118V32.6042L54.8638 31.2084L53.9321 28.1663L54.3801 28.8642L55.2939 26.8421L54.3621 24.4979L53.4125 26.1442L53.1975 24.9632L53.9142 23.8L52.7316 21.2411H53.4125L54.3621 22.8695L55.2939 21.2411H56.4764L57.4082 22.8695L58.3399 21.2411H59.7374L60.4362 22.8695L61.368 21.2411H62.7118L63.4106 22.8695L64.3423 21.2411H65.059L63.8764 23.8L64.5931 24.9632L64.3423 26.1442L63.4106 24.4979L62.2997 26.8421L63.4643 28.9179L63.9302 28.0053L63.2314 30.7969L62.2997 32.5863L62.7655 33.5169V34H62.2997ZM57.3365 24.4442L58.5728 26.8421L57.3365 28.8642L56.2256 26.8421L57.3365 24.4442ZM54.7743 29.58L55.6881 27.4863L56.8706 29.58L55.6881 31.6737L54.7743 29.58ZM57.8023 29.58L58.7341 27.4863L59.8987 29.58L58.7341 31.6737L57.8023 29.58ZM60.3646 24.4442L61.6009 26.8421L60.4362 28.9179L59.2716 26.8421L60.3646 24.4442ZM61.9951 27.4863L62.9268 29.58L61.9951 31.6737L60.92 29.58L61.9951 27.4863ZM62.9268 23.7463L61.9951 25.8579L60.92 23.7463L62.0847 21.6526L62.9268 23.7463ZM56.8706 23.7463L55.6881 25.8579L54.7743 23.7463L55.6881 21.6526L56.8706 23.7463ZM59.8987 23.7463L58.7341 25.8579L57.8023 23.7463L58.7341 21.6526L59.8987 23.7463ZM46.3529 18.8611C46.5859 19.0937 47.0517 19.3263 47.2847 19.7916C47.401 19.9633 47.4631 20.1659 47.4631 20.3732C47.4631 20.5805 47.401 20.783 47.2847 20.9548L43.5399 30.2779C43.3337 30.6659 43.0342 30.9967 42.6683 31.2403C42.3023 31.484 41.8814 31.6329 41.4435 31.6737L36.767 32.3716L33.7389 48.4769L33.5239 55.2232C33.5379 56.2748 33.2917 57.3136 32.8072 58.2474L28.6682 66.3716C28.4884 66.8451 28.1701 67.2537 27.7547 67.5441C27.3393 67.8345 26.846 67.9934 26.3389 68H26.0881L25.1563 67.7674C24.8826 67.8045 24.6041 67.7577 24.3577 67.633C24.1113 67.5084 23.9086 67.3118 23.7767 67.0695C23.6477 66.8174 23.5805 66.5384 23.5805 66.2553C23.5805 65.9722 23.6477 65.6932 23.7767 65.4411L27.9515 56.3505C28.2858 55.6229 28.3739 54.8063 28.2023 54.0242L27.9515 50.7674L26.3389 51L23.2929 57.7463C22.7399 58.6691 21.9222 59.4047 20.9457 59.8579L12.5423 62.8642C12.0944 62.8642 11.8614 63.0969 11.6106 63.0969C11.2163 63.0911 10.8274 63.0057 10.4671 62.8458C10.1068 62.6858 9.78266 62.4547 9.51421 62.1663L8.81542 61.2537C8.34956 60.7884 8.11663 60.3232 8.34956 59.8579C8.39193 59.5979 8.50196 59.3536 8.66862 59.1495C8.83529 58.9454 9.05274 58.7885 9.2992 58.6948L17.4697 55.6526C17.8402 55.5136 18.1763 55.296 18.4546 55.0149C18.733 54.7338 18.9471 54.3958 19.0822 54.0242L21.8953 46.8663C21.9275 46.8664 21.9593 46.8599 21.9888 46.8471C22.0183 46.8343 22.0448 46.8155 22.0667 46.792C22.0886 46.7685 22.1053 46.7407 22.1159 46.7103C22.1265 46.68 22.1307 46.6478 22.1283 46.6158L24.2605 37.579L16.7709 43.7884C16.4515 44.0786 16.0379 44.2438 15.6062 44.2537C15.1113 44.2053 14.6337 44.0463 14.2086 43.7884L12.7931 42.84C12.5195 42.488 12.2907 42.1033 12.1123 41.6948C12.1059 41.4544 12.1661 41.2169 12.2863 41.0085C12.4064 40.8001 12.5818 40.6289 12.7931 40.5137L26.5718 29.3474C26.9758 29.0446 27.4645 28.8756 27.9694 28.8642L35.1365 28.399L38.72 27.9516C38.9529 27.719 39.6517 27.2537 39.6517 27.0032L43.3965 19.559C43.6281 19.1694 43.9819 18.8671 44.403 18.6989C44.8242 18.5306 45.2892 18.5059 45.7258 18.6284L46.3529 18.8611ZM32.2517 26.8421C32.8816 26.799 33.4939 26.6156 34.0435 26.3053C34.7801 26.0654 35.456 25.6694 36.0251 25.1444C36.5941 24.6193 37.0428 23.9776 37.3404 23.2632C37.7226 22.6004 37.9472 21.8587 37.9969 21.0955C38.0466 20.3322 37.9201 19.5677 37.627 18.8611C37.1764 17.7957 36.4318 16.8801 35.4801 16.2211C34.5284 15.5622 33.4088 15.1868 32.2517 15.139C31.5212 15.0679 30.787 15.2309 30.1554 15.6042C28.7377 16.0898 27.5677 17.1122 26.8974 18.451C26.2271 19.7898 26.1102 21.338 26.5718 22.7621C26.9796 23.9455 27.7449 24.9734 28.7622 25.7041C29.7795 26.4349 30.9987 26.8325 32.2517 26.8421ZM51.9612 13.099C51.9683 12.2658 51.7274 11.4492 51.269 10.753C50.8107 10.0567 50.1556 9.51217 49.3869 9.18838C48.6181 8.8646 47.7704 8.7762 46.9513 8.9344C46.1321 9.0926 45.3785 9.49026 44.786 10.0769C44.1936 10.6636 43.789 11.4128 43.6236 12.2295C43.4582 13.0462 43.5395 13.8936 43.8571 14.6641C44.1747 15.4346 44.7143 16.0935 45.4075 16.5572C46.1007 17.0208 46.9162 17.2684 47.7505 17.2684C48.3011 17.2708 48.8468 17.1648 49.3564 16.9566C49.866 16.7483 50.3295 16.4418 50.7205 16.0547C51.1115 15.6675 51.4223 15.2072 51.6352 14.7C51.8481 14.1929 51.9588 13.6489 51.9612 13.099ZM52.66 20.5432H51.4953L55.0789 34.9842L63.4643 34.7516L66.2953 20.4895L52.66 20.5432Z" fill="white"/>
</g>
</g>
</g>
<defs>
<clipPath id="clip0_109_4460">
<rect width="74" height="68" fill="white"/>
</clipPath>
</defs>
</svg>
