<svg width="71" height="65" viewBox="0 0 71 65" fill="none" xmlns="http://www.w3.org/2000/svg">
<g id="&#208;&#160;&#208;&#181;&#209;&#129;&#209;&#131;&#209;&#128;&#209;&#129; 7 1" clip-path="url(#clip0_109_4478)">
<g id="&#208;&#161;&#208;&#187;&#208;&#190;&#208;&#185; 2">
<g id="1">
<path id="Vector" fill-rule="evenodd" clip-rule="evenodd" d="M44.4279 63.7111C39.7376 64.477 34.927 63.9372 30.523 62.151C25.434 60.2069 20.684 57.4712 16.4485 54.045C-11.3953 32.8815 -1.6958 14.9908 29.2342 4.34115C38.8999 0.779974 58.3498 -3.76477 66.1332 5.32472C71.9495 12.1079 71.6613 23.0797 69.6773 31.1857C66.8454 43.6837 58.7398 60.4382 44.394 63.7111H44.4279Z" fill="#0088FF"/>
<path id="Vector_2" fill-rule="evenodd" clip-rule="evenodd" d="M22.9771 54.9269V60.4552H44.6315V54.9269H22.9771ZM55.1959 27.1158V22.0454C51.6688 16.534 49.6678 23.3681 49.6678 23.3681V23.5885C48.82 10.7853 41.0705 4.39209 30.2348 4.39209C18.7887 4.39209 9.49611 11.4636 9.49611 25.437C9.49021 30.3073 10.7344 35.0977 13.1097 39.3496C15.4849 43.6014 18.9116 47.1724 23.0619 49.7208V51.4166H44.6315V48.9747C46.1237 47.265 47.1874 45.2247 47.7347 43.0224C56.5694 35.0691 55.2298 27.1328 55.2298 27.1328L55.1959 27.1158Z" fill="#18457C"/>
<path id="Vector_3" fill-rule="evenodd" clip-rule="evenodd" d="M26.3346 59.4717V65H47.989V59.4717H26.3346ZM58.5534 31.6776V26.5902C55.0433 21.0618 53.0253 27.8959 53.0253 27.8959V28.1164C52.1775 15.33 44.445 8.91992 33.5923 8.91992C22.1123 8.91992 12.8197 15.9914 12.8197 29.897C12.8203 34.7661 14.0673 39.554 16.4419 43.8047C18.8165 48.0555 22.2397 51.6276 26.3855 54.1808V55.8766H47.989V53.5364C49.4935 51.8287 50.5587 49.7797 51.0922 47.5672C59.9269 39.6139 58.5873 31.6776 58.5873 31.6776H58.5534Z" fill="white"/>
</g>
</g>
</g>
<defs>
<clipPath id="clip0_109_4478">
<rect width="71" height="65" fill="white"/>
</clipPath>
</defs>
</svg>
