<svg width="57" height="65" viewBox="0 0 57 65" fill="none" xmlns="http://www.w3.org/2000/svg">
<g id="&#208;&#160;&#208;&#181;&#209;&#129;&#209;&#131;&#209;&#128;&#209;&#129; 5 1" clip-path="url(#clip0_109_4454)">
<g id="&#208;&#161;&#208;&#187;&#208;&#190;&#208;&#185; 2">
<g id="1">
<path id="Vector" fill-rule="evenodd" clip-rule="evenodd" d="M14.0646 58.6114C9.32905 53.2144 5.99839 45.3156 3.88319 38.4552C1.57856 30.5407 -1.01019 16.0491 3.48856 8.27611C8.90285 -1.08603 23.4409 -0.818537 32.5805 1.02242C40.8992 2.86338 52.4066 7.61526 55.7057 16.049C59.1468 25.1752 55.2479 37.1335 50.4177 45.3156C43.0145 57.9033 27.0084 74.173 14.1119 58.6114H14.0646Z" fill="#0088FF"/>
<path id="Vector_2" fill-rule="evenodd" clip-rule="evenodd" d="M49.9914 26.7488C49.3837 25.7382 48.692 24.7803 47.9236 23.8851C46.8499 22.3193 45.5339 20.9332 44.0246 19.7783C43.5116 17.6745 42.418 15.7559 40.8676 14.2397C41.0728 14.4757 41.0728 14.4757 41.278 14.4757C42.7303 15.6873 43.9615 16.9146 45.2085 18.1262C47.2869 20.6981 48.8903 23.6177 49.9441 26.7488H49.9914ZM37.2371 41.0831L32.2963 32.665L36.8109 20.8168L43.2038 21.2259C44.4735 22.3423 45.641 23.5692 46.6923 24.8921C47.9275 26.5097 48.9021 28.3093 49.581 30.2261C48.1446 42.1216 47.7184 40.2649 37.2371 41.0831ZM46.4871 47.2039C44.9791 49.2918 43.1769 51.1519 41.136 52.7267C33.7485 57.6517 31.6649 55.6062 30.2443 49.6585L37.2371 42.7037C45.2717 41.8855 46.2977 39.6355 46.8975 46.606C46.6923 46.7948 46.6923 46.9993 46.4871 47.2039ZM21.3888 57.0223C19.2353 56.8288 17.1422 56.2083 15.2326 55.1971C13.5188 54.3622 11.8676 53.4051 10.2919 52.3334C12.7544 48.0221 7.00859 49.8788 18.7211 46.0395L28.5868 50.1305C30.4495 57.5101 30.6547 56.8964 21.3888 57.0853V57.0223ZM4.11991 41.8383C3.91471 40.8156 3.7095 39.5883 3.5043 37.9519C3.36723 36.2452 3.43612 34.5284 3.7095 32.8381C3.82245 31.5535 4.17019 30.3003 4.73553 29.1404C11.0496 23.6176 13.5594 29.5338 18.9421 35.0882L17.9161 44.529C10.0867 47.2039 9.47106 49.2022 4.11991 41.8383ZM2.05207 32.6021C1.67058 34.36 1.60644 36.1716 1.86264 37.9519C1.69773 37.5835 1.49119 37.2351 1.24703 36.9134C1.24703 35.7018 1.02603 34.6633 1.02603 33.436C1.04895 29.9656 1.82435 26.5411 3.29909 23.3973C3.19591 24.8956 3.19591 26.3991 3.29909 27.8974C2.67069 29.4073 2.25118 30.9953 2.05207 32.6178V32.6021ZM35.3902 20.1245L30.8599 32.0042L20.1734 34.0497C14.0014 27.8974 8.23983 25.6473 14.617 17.4653C16.1722 16.5926 17.8252 15.906 19.542 15.4198C21.2173 14.6147 23.0492 14.185 24.9089 14.161C26.2704 13.9719 27.6516 13.9719 29.013 14.161L35.3902 20.1245ZM11.5231 13.9879C11.7283 13.7834 12.1387 13.5788 12.344 13.3586C13.5594 12.5187 14.8743 11.8316 16.2587 11.313C19.333 10.0921 22.6098 9.45698 25.9191 9.44062C28.1409 9.40412 30.3568 9.67955 32.5015 10.2588C31.1763 10.7608 29.9832 11.5572 29.013 12.5876H24.6879C22.7381 12.7986 20.8137 13.1992 18.9421 13.7834C17.5857 14.2817 16.2758 14.8977 15.0274 15.6243C13.6926 15.0349 12.3155 14.5458 10.9075 14.161C11.1127 14.161 11.3179 13.9722 11.5231 13.9722V13.9879ZM44.4351 15.5614C42.0459 13.2947 39.2579 11.4864 36.211 10.2273C32.9589 8.84447 29.4547 8.14801 25.9191 8.18184C22.4296 8.16331 18.9758 8.8819 15.7851 10.2903C12.6972 11.5521 9.86303 13.3591 7.419 15.6243C5.11322 17.9392 3.23261 20.6393 1.86264 23.6018C-0.620719 29.9134 -0.620719 36.9271 1.86264 43.2387C3.22522 46.2195 5.10636 48.9363 7.419 51.2634C9.80185 53.6524 12.6486 55.5317 15.7851 56.7863C18.9925 58.0827 22.4114 58.7814 25.8718 58.8475C29.3989 58.7834 32.8854 58.0851 36.1637 56.7863C39.2594 55.5334 42.06 53.6526 44.3877 51.2634C46.828 49.0508 48.7285 46.3113 49.9441 43.2545C51.4296 40.1932 52.2013 36.8366 52.2013 33.436C52.2013 30.0354 51.4296 26.6788 49.9441 23.6176C48.7239 20.5677 46.8239 17.8343 44.3877 15.6243L44.4351 15.5614Z" fill="#18457C"/>
<path id="Vector_3" fill-rule="evenodd" clip-rule="evenodd" d="M53.1169 30.9028C52.5071 29.8975 51.8211 28.9402 51.0648 28.0391C49.9819 26.4854 48.6671 25.1058 47.1659 23.9481C46.6529 21.8443 45.5593 19.9257 44.0089 18.4095C44.2141 18.6298 44.2141 18.6298 44.4035 18.6298C45.8558 19.8413 47.1028 21.0844 48.334 22.2959C50.415 24.8603 52.0187 27.7752 53.0695 30.9028H53.1169ZM40.3625 45.2371L35.4218 36.8348L39.9521 24.9708L46.2662 25.3799C47.5412 26.5016 48.7139 27.7337 49.7705 29.0619C51.0006 30.6744 51.9699 32.4689 52.6434 34.3802C51.2069 46.2756 50.7965 44.4347 40.2994 45.2371H40.3625ZM49.6284 51.3894C48.1154 53.4731 46.3138 55.3326 44.2772 56.9123C36.874 61.8215 34.8062 59.7917 33.3855 53.7653L40.3625 46.7949C48.3972 45.9924 49.4232 43.7266 50.0388 50.6971C49.8336 50.9016 49.8336 51.1062 49.6284 51.3107V51.3894ZM24.5301 61.2078C22.3744 60.9995 20.279 60.3798 18.3581 59.3826C16.6477 58.5354 14.997 57.5734 13.4174 56.5032C15.8956 52.2076 10.1341 54.0485 21.8624 50.2093L31.7281 54.2846C33.575 61.6799 33.7802 61.0505 24.5301 61.255V61.2078ZM7.2454 46.0711C7.0402 45.0326 6.85078 43.8053 6.64557 42.1689C6.50059 40.4624 6.56952 38.7446 6.85078 37.0551C6.95884 35.7727 7.31249 34.5228 7.89259 33.3732C14.2066 27.8503 16.7322 33.7508 22.0992 39.3209L21.0732 48.7617C13.1806 51.4208 12.6281 53.4821 7.27697 46.1025L7.2454 46.0711ZM5.19334 36.8348C4.81437 38.5874 4.74493 40.3925 4.98813 42.1689C4.83335 41.8002 4.62601 41.4557 4.37251 41.1461C4.37251 39.9188 4.16731 38.896 4.16731 37.6687C4.18301 34.1941 4.95306 30.7641 6.42458 27.6143C6.32127 29.1178 6.32127 30.6266 6.42458 32.1301C5.79934 33.64 5.38506 35.2283 5.19334 36.8505V36.8348ZM38.5315 24.3572L33.9854 36.1897L23.2989 38.2352C17.1269 32.1301 11.3653 29.8958 17.7425 21.6823C19.301 20.809 20.96 20.1274 22.6832 19.6525C24.3538 18.8517 26.1808 18.4273 28.0344 18.4095C29.3947 18.2048 30.7782 18.2048 32.1385 18.4095L38.5315 24.3572ZM14.6644 18.2049C14.8696 18.0161 15.2642 17.7958 15.4852 17.5913C16.6952 16.7517 18.0048 16.0647 19.3841 15.5458C22.4589 14.3298 25.7368 13.7051 29.0446 13.7048C31.272 13.6615 33.494 13.937 35.6428 14.523C34.3196 15.0005 33.1218 15.7696 32.1385 16.7731H27.8292C25.8697 16.9816 23.9382 17.3983 22.0676 18.0161C20.7111 18.5078 19.4011 19.1186 18.1529 19.8413C16.8195 19.2568 15.4419 18.778 14.033 18.4095C14.254 18.4095 14.4434 18.2049 14.6644 18.2049ZM47.5763 19.7784C45.1776 17.5202 42.3851 15.7178 39.3365 14.4601C36.0874 13.0674 32.5811 12.3706 29.0446 12.4146C25.5647 12.3904 22.12 13.1093 18.9422 14.523C15.8353 15.7777 12.9801 17.5791 10.5129 19.8413C8.21663 22.1692 6.34682 24.8798 4.98813 27.8503C2.50477 34.1619 2.50477 41.1756 4.98813 47.4872C6.35651 50.4553 8.23719 53.1608 10.5445 55.4804C12.9363 57.8733 15.7942 59.7528 18.9422 61.0033C22.1441 62.2995 25.5578 62.9982 29.0131 63.0645C32.5405 63.0031 36.0275 62.3047 39.3049 61.0033C42.4063 59.7523 45.2124 57.8714 47.5448 55.4804C49.9765 53.2699 51.8713 50.5364 53.0853 47.4872C54.5811 44.4288 55.3584 41.0711 55.3584 37.6687C55.3584 34.2663 54.5811 30.9086 53.0853 27.8503C51.8714 24.7965 49.9768 22.0578 47.5448 19.8413L47.5763 19.7784Z" fill="white"/>
</g>
</g>
</g>
<defs>
<clipPath id="clip0_109_4454">
<rect width="57" height="65" fill="white"/>
</clipPath>
</defs>
</svg>
