<svg width="76" height="65" viewBox="0 0 76 65" fill="none" xmlns="http://www.w3.org/2000/svg">
<g id="&#208;&#160;&#208;&#181;&#209;&#129;&#209;&#131;&#209;&#128;&#209;&#129; 3 1" clip-path="url(#clip0_109_4434)">
<g id="&#208;&#161;&#208;&#187;&#208;&#190;&#208;&#185; 2">
<g id="1">
<path id="Vector" fill-rule="evenodd" clip-rule="evenodd" d="M6.2331 58.5962C0.482843 54.2026 -0.37424 46.8956 0.124427 40.5077C0.701011 37.5008 0.763344 36.9555 1.58926 33.4811C4.86176 21.3131 14.7104 3.7388 27.7225 0.700688C39.9555 -2.2751 51.4248 4.76708 60.5255 12.6039L60.7904 12.7908C69.3301 20.908 78.8048 34.6029 75.2206 47.1448C71.6364 59.6868 51.4248 63.722 40.5165 64.5945C30.3094 65.6539 14.1183 64.984 6.2331 58.5962Z" fill="#0088FF"/>
<path id="Vector_2" fill-rule="evenodd" clip-rule="evenodd" d="M17.8429 55.6208C17.8504 56.1743 17.7435 56.7233 17.5289 57.2335C17.3143 57.7437 16.9966 58.2041 16.5958 58.5859C16.1949 58.9676 15.7195 59.2625 15.1994 59.452C14.6793 59.6415 14.1256 59.7216 13.573 59.6872C13.0441 59.6994 12.5184 59.601 12.0297 59.3984C11.5409 59.1959 11.0999 58.8935 10.7346 58.5108C10.3694 58.1281 10.0881 57.6734 9.90873 57.1757C9.72933 56.6781 9.65578 56.1485 9.69278 55.6208C9.67178 55.0984 9.75662 54.5771 9.94219 54.0883C10.1278 53.5995 10.4103 53.1533 10.7727 52.7764C11.1351 52.3995 11.57 52.0997 12.0512 51.8951C12.5325 51.6904 13.0501 51.5852 13.573 51.5856C14.1192 51.5669 14.6637 51.6568 15.1749 51.8501C15.6861 52.0433 16.1539 52.3361 16.551 52.7115C16.9482 53.0868 17.2669 53.5373 17.4887 54.0367C17.7104 54.5361 17.8308 55.0745 17.8429 55.6208ZM22.2997 45.8833C20.8027 44.9994 19.4342 43.9143 18.2325 42.6582C16.5243 40.9613 15.176 38.9373 14.2683 36.7073C13.3606 34.4774 12.9121 32.0873 12.9497 29.68C12.9262 27.2747 13.3811 24.8887 14.288 22.6607C15.1949 20.4327 16.5357 18.4072 18.2325 16.7018C21.764 13.2462 26.4905 11.2823 31.4316 11.2177C33.8852 11.2125 36.3155 11.6946 38.5813 12.636C40.8472 13.5775 42.9034 14.9595 44.6307 16.7018C45.8051 17.8798 46.7696 19.2498 47.4824 20.7527L22.2997 45.8833ZM49.1031 23.7908C49.9815 26.6102 50.2575 29.5827 49.9134 32.5156L45.441 36.769C45.2413 37.0718 45.1348 37.4267 45.1348 37.7894C45.1348 38.1522 45.2413 38.5071 45.441 38.8099L56.5987 49.9497L51.7367 54.8262L40.5634 43.9202C40.4692 43.7336 40.3241 43.5775 40.1448 43.4699C39.9656 43.3624 39.7595 43.3078 39.5505 43.3126C39.3175 43.3274 39.0899 43.3889 38.8812 43.4933C38.6724 43.5976 38.4867 43.7428 38.335 43.9202L34.0651 47.971C33.199 48.147 32.3144 48.215 31.4316 48.1736C29.4375 48.2172 27.4492 47.9437 25.541 47.3634L49.1031 23.7908ZM59.8556 48.937L48.6979 37.7817L52.1418 34.2761C52.547 34.0892 52.547 33.6685 52.547 33.279C53.2126 29.9097 53.0313 26.4279 52.0196 23.1458C51.0078 19.8638 49.1972 16.8841 46.75 14.4739C43.7399 11.4596 39.9032 9.40566 35.7253 8.57186C31.5474 7.73805 27.216 8.16187 23.279 9.78968C19.3421 11.4175 15.9765 14.1762 13.608 17.7167C11.2396 21.2573 9.97465 25.4206 9.97328 29.68C9.94183 32.5027 10.4773 35.3029 11.548 37.9149C12.6187 40.5269 14.2029 42.8974 16.2066 44.8862C20.2257 48.9788 25.6955 51.3241 31.4316 51.4142C32.7283 51.3796 34.0205 51.2442 35.2962 51.0091C35.4988 51.0091 35.7014 50.8222 36.1066 50.604L39.5505 47.1609L50.4588 58.0669C50.6154 58.2258 50.8065 58.3465 51.0173 58.4194C51.2282 58.4924 51.453 58.5157 51.6743 58.4876C52.0795 58.4876 52.4847 58.4876 52.6872 58.0669L59.7933 50.978C60.1268 50.7361 60.3509 50.3719 60.4166 49.9653C60.4166 49.5602 60.0114 49.1707 59.7933 48.9526L59.8556 48.937Z" fill="#18457C"/>
<path id="Vector_3" fill-rule="evenodd" clip-rule="evenodd" d="M20.9283 59.8118C20.9358 60.3653 20.829 60.9143 20.6144 61.4245C20.3998 61.9347 20.0821 62.3951 19.6812 62.7769C19.2804 63.1586 18.805 63.4535 18.2849 63.643C17.7647 63.8325 17.211 63.9126 16.6585 63.8782C16.1309 63.8882 15.6069 63.7882 15.12 63.5846C14.6331 63.3811 14.194 63.0785 13.8305 62.696C13.4669 62.3135 13.187 61.8595 13.0086 61.363C12.8301 60.8664 12.757 60.3382 12.7938 59.8118C12.7729 59.29 12.8572 58.7693 13.0416 58.2807C13.2261 57.792 13.5069 57.3455 13.8675 56.9676C14.228 56.5896 14.6609 56.2881 15.1404 56.0808C15.6199 55.8735 16.1361 55.7648 16.6585 55.761C17.206 55.7423 17.7517 55.8327 18.2639 56.027C18.7762 56.2212 19.2446 56.5154 19.642 56.8924C20.0394 57.2694 20.3577 57.7217 20.5786 58.2229C20.7994 58.7241 20.9183 59.2642 20.9283 59.8118ZM25.4008 50.0743C23.902 49.18 22.529 48.0902 21.3179 46.8337C19.6133 45.1349 18.2683 43.1102 17.3634 40.8804C16.4584 38.6507 16.012 36.2615 16.0508 33.8555C16.0298 31.4542 16.4845 29.0726 17.3885 26.8478C18.2925 24.6231 19.6279 22.5992 21.3179 20.8929C24.853 17.4426 29.5773 15.4797 34.517 15.4087C36.9707 15.4035 39.401 15.8856 41.6668 16.827C43.9326 17.7685 45.9888 19.1505 47.7161 20.8929C48.8868 22.0681 49.8509 23.4323 50.5679 24.9281L25.4008 50.0743ZM52.1885 28.0441C53.0535 30.8395 53.3242 33.7849 52.9833 36.691L48.5109 40.9444C48.3111 41.2473 48.2047 41.6021 48.2047 41.9649C48.2047 42.3277 48.3111 42.6825 48.5109 42.9854L59.6841 54.1251L54.8065 59.0017L43.6489 48.0956C43.5493 47.9101 43.4008 47.7554 43.2195 47.6483C43.0381 47.5412 42.831 47.4857 42.6204 47.488C42.3901 47.5049 42.1655 47.5673 41.9595 47.6716C41.7535 47.7759 41.5703 47.92 41.4204 48.0956L37.135 52.162C36.2673 52.3258 35.3836 52.3885 34.5014 52.349C32.507 52.3991 30.5177 52.1255 28.6109 51.5388L52.1885 28.0441ZM62.9411 53.1747L51.7834 42.035L55.2273 38.5918C55.6325 38.3893 55.6325 37.9686 55.6325 37.5791C56.3091 34.1915 56.1259 30.6884 55.0996 27.3898C54.0733 24.0912 52.2367 21.1023 49.7575 18.6961C46.7484 15.6827 42.9131 13.6291 38.7367 12.7948C34.5602 11.9605 30.2301 12.383 26.2938 14.0089C22.3575 15.6348 18.9917 18.391 16.6221 21.9292C14.2524 25.4673 12.9853 29.6285 12.9808 33.8866C12.952 36.7089 13.4887 39.5084 14.5593 42.12C15.6298 44.7316 17.2126 47.1024 19.2142 49.0928C23.2422 53.1778 28.7177 55.5119 34.4547 55.5896C35.7509 55.5473 37.0425 55.4119 38.3194 55.1846C38.5219 55.1846 38.7245 54.982 39.1297 54.7795L42.5736 51.3363L53.482 62.2423C53.6385 62.4013 53.8296 62.5219 54.0405 62.5949C54.2513 62.6678 54.4761 62.6911 54.6975 62.663C55.1026 62.663 55.5078 62.663 55.726 62.2423L62.8164 55.1534C63.1426 54.8981 63.3643 54.5324 63.4397 54.1251C63.4397 53.72 63.0346 53.3461 62.8164 53.1124L62.9411 53.1747Z" fill="white"/>
</g>
</g>
</g>
<defs>
<clipPath id="clip0_109_4434">
<rect width="76" height="65" fill="white"/>
</clipPath>
</defs>
</svg>
