<svg width="71" height="65" viewBox="0 0 71 65" fill="none" xmlns="http://www.w3.org/2000/svg">
<g id="&#208;&#160;&#208;&#181;&#209;&#129;&#209;&#131;&#209;&#128;&#209;&#129; 8 1" clip-path="url(#clip0_109_4484)">
<g id="&#208;&#161;&#208;&#187;&#208;&#190;&#208;&#185; 2">
<g id="1">
<path id="Vector" fill-rule="evenodd" clip-rule="evenodd" d="M44.428 63.7111C39.7375 64.4691 34.929 63.9296 30.5231 62.151C25.4341 60.2069 20.6841 57.4712 16.4486 54.045C-11.3952 32.8815 -1.69568 14.9908 29.2343 4.34115C38.9 0.779974 58.3499 -3.76477 66.1333 5.32472C71.9497 12.1079 71.6614 23.0797 69.6774 31.1857C66.8455 43.6837 58.74 60.4382 44.3941 63.7111H44.428Z" fill="#0088FF"/>
<path id="Vector_2" fill-rule="evenodd" clip-rule="evenodd" d="M36.1529 31.7622L33.5076 27.5736L27.7591 33.0849L33.0498 35.7304C33.6143 36.0207 34.0828 36.4682 34.3987 37.0188C34.7147 37.5695 34.8645 38.1998 34.8303 38.8337V42.1235C34.8303 42.7667 34.5748 43.3835 34.12 43.8383C33.6653 44.293 33.0485 44.5485 32.4054 44.5485C31.7623 44.5485 31.1455 44.293 30.6907 43.8383C30.236 43.3835 29.9805 42.7667 29.9805 42.1235V41.0382L20.6879 36.1713C20.1913 35.8175 19.781 35.3563 19.4874 34.8219C19.1938 34.2875 19.0245 33.6938 18.9922 33.0849C18.9879 32.6248 19.0844 32.1693 19.2748 31.7504C19.4652 31.3314 19.7449 30.9593 20.0944 30.6599L28.8274 21.6044C29.1807 21.2783 29.5992 21.031 30.0553 20.879C30.5113 20.727 30.9945 20.6736 31.4727 20.7225C32.0443 20.716 32.6084 20.854 33.1123 21.1238C33.6163 21.3936 34.044 21.7864 34.3555 22.2657L39.0018 29.5577H46.0899C46.3382 29.5011 46.5961 29.5011 46.8444 29.5579C47.0927 29.6146 47.3251 29.7266 47.5242 29.8854C47.7233 30.0442 47.884 30.2459 47.9945 30.4754C48.105 30.7049 48.1624 30.9563 48.1624 31.2111C48.1624 31.4658 48.105 31.7172 47.9945 31.9467C47.884 32.1762 47.7233 32.3779 47.5242 32.5367C47.3251 32.6956 47.0927 32.8075 46.8444 32.8643C46.5961 32.921 46.3382 32.9211 46.0899 32.8645H37.9165C37.5679 32.8241 37.2334 32.7036 36.9392 32.5124C36.645 32.3212 36.3991 32.0644 36.2208 31.7622H36.1529ZM55.162 42.5814C56.0113 43.3918 56.6864 44.367 57.146 45.4473C57.6054 46.5654 57.8305 47.7659 57.8073 48.9746C57.8105 50.11 57.5856 51.2345 57.146 52.2814C56.6868 53.3668 56.0118 54.3476 55.162 55.1642C54.3424 56.0105 53.3624 56.685 52.2793 57.1483C51.1588 57.5997 49.96 57.8245 48.7522 57.8097C46.4324 57.7259 44.2265 56.783 42.5628 55.1642C41.7966 54.3365 41.2182 53.3532 40.8671 52.2814C40.357 51.2474 40.0518 50.1245 39.9683 48.9746C40.0232 47.7497 40.3291 46.5491 40.8671 45.4473C41.2189 44.3809 41.7974 43.4032 42.5628 42.5814C43.4129 41.7753 44.3789 41.1008 45.4286 40.5804C46.5072 40.1479 47.6579 39.9234 48.82 39.919C50.0271 39.9124 51.2244 40.1369 52.3471 40.5804C53.431 41.0499 54.4109 41.7301 55.2298 42.5814H55.162ZM48.7522 37.7145C50.2732 37.6483 51.7872 37.957 53.1611 38.6132C54.5109 39.1424 55.7228 39.9717 56.7051 41.0382C57.8326 41.9592 58.6739 43.1829 59.13 44.5655C59.7729 45.9438 60.0808 47.4546 60.0287 48.9746C60.0576 50.4215 59.7499 51.8554 59.13 53.1632C58.6134 54.5149 57.7822 55.7241 56.7051 56.6905C55.7799 57.8248 54.5505 58.6719 53.1611 59.1324C51.786 59.7835 50.2719 60.0863 48.7522 60.0142C47.3019 60.0407 45.8643 59.7393 44.5468 59.1324C43.1955 58.6069 41.9871 57.7703 41.0197 56.6905C39.9324 55.7295 39.0945 54.5191 38.5778 53.1632C37.9707 51.8517 37.6692 50.4195 37.696 48.9746C37.6468 47.4566 37.9486 45.9478 38.5778 44.5655C39.0343 43.1787 39.8823 41.9536 41.0197 41.0382C42.0425 40.0274 43.2367 39.2063 44.5468 38.6132C45.8631 38.0011 47.3006 37.6938 48.7522 37.7145ZM48.9726 60.4551C52.0026 60.403 54.8941 59.1772 57.0386 57.0358C59.183 54.8945 60.413 52.0046 60.4696 48.9746C60.4696 45.8982 59.2476 42.9479 57.0724 40.7726C54.8972 38.5974 51.9471 37.3753 48.8709 37.3753C45.7947 37.3753 42.8445 38.5974 40.6693 40.7726C38.4941 42.9479 37.2721 45.8982 37.2721 48.9746C37.3342 52.0381 38.5937 54.9554 40.7808 57.1014C42.9679 59.2474 45.9086 60.4513 48.9726 60.4551ZM22.0445 42.5814C22.8989 43.3912 23.5796 44.3662 24.0455 45.4473C24.491 46.569 24.71 47.7678 24.6898 48.9746C24.7019 50.1333 24.473 51.2819 24.0176 52.3474C23.5622 53.4129 22.8903 54.3722 22.0445 55.1642C21.3143 56.0067 20.4123 56.6832 19.3992 57.1483C18.2728 57.5997 17.0685 57.8245 15.8551 57.8097C13.5272 57.7629 11.3083 56.8145 9.66571 55.1642C8.81111 54.3517 8.13539 53.3698 7.68171 52.2814C7.25141 51.2317 7.0269 50.109 7.02038 48.9746C7.00559 47.7667 7.23036 46.5678 7.68171 45.4473C8.13744 44.3649 8.81304 43.389 9.66571 42.5814C10.4345 41.6731 11.4286 40.9829 12.5484 40.5804C13.6198 40.1237 14.7755 39.8983 15.9399 39.919C17.1525 39.9124 18.3553 40.1368 19.484 40.5804C20.4674 41.0619 21.3395 41.7435 22.0445 42.5814ZM15.8212 37.7145C17.3458 37.671 18.8601 37.9785 20.247 38.6132C21.5163 39.2589 22.6916 40.0747 23.7402 41.0382C24.8096 42.0113 25.6395 43.2185 26.1651 44.5655C26.6906 45.9792 26.9882 47.4675 27.0469 48.9746C26.9659 50.4072 26.6686 51.8194 26.1651 53.1632C25.5802 54.4779 24.7582 55.6736 23.7402 56.6905C22.7352 57.7269 21.537 58.5565 20.2131 59.1324C18.825 59.7619 17.3107 60.0636 15.7873 60.0142C14.3405 60.0619 12.9036 59.7594 11.5988 59.1324C10.171 58.6227 8.88186 57.7865 7.83433 56.6905C6.91019 55.6024 6.1031 54.4202 5.4264 53.1632C4.99756 51.8084 4.78021 50.3956 4.78202 48.9746C4.76364 47.4801 4.9811 45.9921 5.4264 44.5655C6.05534 43.2719 6.87885 42.0823 7.86824 41.0382C8.97045 40.0144 10.2449 39.1935 11.6328 38.6132C12.9363 37.981 14.3731 37.6727 15.8212 37.7145ZM27.3182 48.9746C27.3272 47.463 27.0359 45.9646 26.4611 44.5666C25.8863 43.1685 25.0395 41.8985 23.9699 40.8304C22.9003 39.7623 21.6291 38.9174 20.2303 38.3446C18.8314 37.7719 17.3327 37.4827 15.8212 37.494C14.3097 37.4827 12.811 37.7719 11.4121 38.3446C10.0133 38.9174 8.74212 39.7623 7.6725 40.8304C6.60287 41.8985 5.75608 43.1685 5.18129 44.5666C4.60649 45.9646 4.31515 47.463 4.32418 48.9746C4.32418 52.0239 5.53547 54.9483 7.69158 57.1045C9.84768 59.2607 12.772 60.4721 15.8212 60.4721C18.8704 60.4721 21.7947 59.2607 23.9508 57.1045C26.1069 54.9483 27.3182 52.0239 27.3182 48.9746ZM37.696 22.7066C38.2645 22.7025 38.8262 22.5842 39.348 22.3586C39.8697 22.133 40.3408 21.8047 40.7331 21.3934C41.1255 20.982 41.4311 20.496 41.6318 19.9642C41.8325 19.4323 41.9242 18.8655 41.9014 18.2975C41.9014 17.7461 41.7925 17.2 41.581 16.6907C41.3695 16.1814 41.0594 15.7189 40.6687 15.3297C40.278 14.9406 39.8142 14.6324 39.3041 14.4229C38.794 14.2134 38.2475 14.1067 37.696 14.1089C36.5973 14.1469 35.5539 14.6004 34.7765 15.3779C33.9991 16.1553 33.5456 17.1987 33.5076 18.2975C33.4978 19.4322 33.9291 20.5262 34.7106 21.3488C35.492 22.1714 36.5625 22.6583 37.696 22.7066Z" fill="#18457C"/>
<path id="Vector_3" fill-rule="evenodd" clip-rule="evenodd" d="M39.5274 36.3239L36.8821 32.1183L31.1166 37.6296L36.4242 40.2751C36.9807 40.575 37.4423 41.0245 37.7569 41.5728C38.0716 42.1212 38.2267 42.7466 38.2047 43.3784V46.77C38.1873 47.409 37.9234 48.0164 37.4682 48.4653C37.0131 48.9141 36.402 49.1695 35.7629 49.178C35.1182 49.1735 34.5015 48.9143 34.0472 48.4568C33.5929 47.9994 33.338 47.3808 33.338 46.7361V45.6338L24.0454 40.699C23.5484 40.3418 23.138 39.8774 22.8445 39.3403C22.551 38.8032 22.3819 38.207 22.3497 37.5957C22.3454 37.1356 22.4419 36.6801 22.6323 36.2611C22.8227 35.8422 23.1024 35.47 23.4519 35.1707L32.2188 26.1491C32.5715 25.8282 32.9879 25.5854 33.4408 25.4364C33.8937 25.2874 34.3729 25.2355 34.8472 25.2842C35.4217 25.2747 35.9891 25.4114 36.4963 25.6813C37.0035 25.9512 37.4338 26.3456 37.7469 26.8274L42.3932 34.1024H49.4643C49.9141 34.1024 50.3454 34.281 50.6634 34.5991C50.9814 34.9171 51.1601 35.3484 51.1601 35.7982C51.1601 36.2479 50.9814 36.6792 50.6634 36.9973C50.3454 37.3153 49.9141 37.494 49.4643 37.494H41.274C40.9243 37.4575 40.5882 37.3386 40.2934 37.147C39.9986 36.9554 39.7535 36.6965 39.5783 36.3917L39.5274 36.3239ZM58.5365 47.1261C59.3808 47.9372 60.0502 48.9125 60.5035 49.992C60.9687 51.1149 61.1995 52.3209 61.1818 53.5362C61.1256 55.2794 60.5764 56.9709 59.598 58.4146C58.6196 59.8583 57.2519 60.995 55.6537 61.693C54.0167 62.3602 52.2188 62.5278 50.4866 62.1747C48.7545 61.8216 47.1656 60.9636 45.9203 59.7089C45.1478 58.8925 44.5683 57.9132 44.2245 56.843C43.7038 55.783 43.3983 54.6303 43.3258 53.4514C43.3808 52.2211 43.6867 51.0151 44.2245 49.9072C44.5683 48.8371 45.1478 47.8577 45.9203 47.0413C46.7721 46.234 47.7447 45.5645 48.803 45.0572C49.8522 44.6253 50.9751 44.4007 52.1097 44.3959C53.323 44.3811 54.5274 44.6058 55.6537 45.0572C56.7403 45.5144 57.7214 46.1897 58.5365 47.0413V47.1261ZM52.1097 42.2761C53.6349 42.2026 55.1549 42.5054 56.5355 43.1579C57.8714 43.7042 59.0742 44.5312 60.0626 45.5829C61.2001 46.5229 62.0421 47.7712 62.4875 49.178C63.1334 50.5553 63.4416 52.0668 63.3862 53.5871C63.3969 54.9941 63.0897 56.3854 62.4875 57.657C61.9727 59.0097 61.1412 60.2192 60.0626 61.1843C59.1348 62.3044 57.9135 63.144 56.5355 63.6093C55.1549 64.2618 53.6349 64.5646 52.1097 64.4911C50.6648 64.518 49.2326 64.2164 47.9212 63.6093C46.5667 63.0887 45.353 62.2582 44.3772 61.1843C43.3035 60.2149 42.4729 59.0066 41.9523 57.657C41.3376 56.3481 41.0357 54.9141 41.0705 53.4684C41.0092 51.9495 41.3115 50.4378 41.9523 49.0593C42.4131 47.6743 43.2532 46.4463 44.3772 45.5151C45.4121 44.5112 46.6106 43.6911 47.9212 43.0901C49.2326 42.4829 50.6648 42.1814 52.1097 42.2083V42.2761ZM52.3301 64.9998C55.3586 64.952 58.2501 63.7299 60.3949 61.5913C62.5398 59.4527 63.7704 56.5646 63.8271 53.5362C63.8271 50.4599 62.6051 47.5096 60.4299 45.3343C58.2547 43.159 55.3046 41.937 52.2284 41.937C49.1522 41.937 46.202 43.159 44.0268 45.3343C41.8516 47.5096 40.6296 50.4599 40.6296 53.5362C40.6961 56.5968 41.9575 59.5098 44.1442 61.6522C46.3308 63.7946 49.269 64.9961 52.3301 64.9998ZM25.4359 47.1261C26.2853 47.9365 26.9603 48.9117 27.4199 49.992C27.8713 51.1184 28.096 52.3228 28.0812 53.5362C28.0857 54.6992 27.861 55.8517 27.4199 56.9278C26.9505 57.9778 26.2759 58.9233 25.4359 59.7089C24.7008 60.5533 23.7929 61.2299 22.7736 61.693C21.6478 62.1462 20.4431 62.371 19.2296 62.3544C16.9041 62.3194 14.6862 61.3689 13.0571 59.7089C12.1786 58.9129 11.4842 57.9349 11.0223 56.843C10.5758 55.768 10.3453 54.6155 10.344 53.4514C10.3345 52.2369 10.5651 51.0324 11.0223 49.9072C11.4694 48.8201 12.1461 47.8425 13.0062 47.0413C13.7669 46.1356 14.7565 45.4504 15.872 45.0572C16.9414 44.594 18.0985 44.3684 19.2635 44.3959C20.477 44.3793 21.6817 44.6041 22.8075 45.0572C23.8227 45.5491 24.7193 46.2549 25.4359 47.1261ZM19.2296 42.2761C20.753 42.2255 22.2676 42.5273 23.6554 43.1579C24.9087 43.8214 26.0762 44.6358 27.1316 45.5829C28.1996 46.5875 29.0333 47.8149 29.5735 49.178C30.1021 50.5909 30.3998 52.0796 30.4553 53.5871C30.3625 54.9796 30.0654 56.351 29.5735 57.657C28.9739 58.9878 28.1477 60.2042 27.1316 61.2521C26.1128 62.2755 24.9105 63.0982 23.5876 63.6771C22.1998 64.3078 20.6852 64.6095 19.1617 64.5589C17.7149 64.6066 16.278 64.3041 14.9733 63.6771C13.5495 63.1674 12.2616 62.3377 11.2088 61.2521C10.2783 60.1445 9.47096 58.939 8.80085 57.657C8.36652 56.3031 8.14346 54.8903 8.13952 53.4684C8.13651 52.0127 8.35961 50.5653 8.80085 49.178C9.42217 47.879 10.2401 46.6835 11.2257 45.6338C12.3376 44.6225 13.6097 43.803 14.9902 43.2088C16.295 42.5818 17.7319 42.2793 19.1787 42.327L19.2296 42.2761ZM30.7266 53.5362C30.7266 50.4869 29.5153 47.5625 27.3592 45.4062C25.2031 43.25 22.2788 42.0387 19.2296 42.0387C16.1804 42.0387 13.2561 43.25 11.0999 45.4062C8.94383 47.5625 7.73254 50.4869 7.73254 53.5362C7.73254 56.5856 8.94383 59.51 11.0999 61.6662C13.2561 63.8224 16.1804 65.0337 19.2296 65.0337C22.2788 65.0337 25.2031 63.8224 27.3592 61.6662C29.5153 59.51 30.7266 56.5856 30.7266 53.5362ZM41.1214 27.2513C41.689 27.2473 42.2501 27.1289 42.771 26.9031C43.2918 26.6773 43.7618 26.3488 44.1528 25.9372C44.5438 25.5256 44.8478 25.0394 45.0466 24.5076C45.2454 23.9758 45.3349 23.4094 45.3098 22.8423C45.3098 22.2879 45.1999 21.739 44.9862 21.2275C44.7725 20.716 44.4594 20.2519 44.0651 19.8623C43.6708 19.4727 43.203 19.1652 42.689 18.9577C42.1749 18.7503 41.6248 18.6469 41.0705 18.6536C39.9771 18.7223 38.951 19.2052 38.201 20.0038C37.451 20.8024 37.0335 21.8569 37.0335 22.9525C37.0335 24.0481 37.451 25.1025 38.201 25.9012C38.951 26.6998 39.9771 27.1826 41.0705 27.2513H41.1214Z" fill="white"/>
</g>
</g>
</g>
<defs>
<clipPath id="clip0_109_4484">
<rect width="71" height="65" fill="white"/>
</clipPath>
</defs>
</svg>
