<svg width="89" height="13" viewBox="0 0 89 13" fill="none" xmlns="http://www.w3.org/2000/svg">
<path d="M7 0L9.37943 3.98865L14 4.96556L10.85 8.40759L11.3262 13L7 11.1386L2.67376 13L3.15 8.40759L0 4.96556L4.62057 3.98865L7 0Z" fill="#DFB300"/>
<path d="M26.5 0L29.0494 3.98865L34 4.96556L30.625 8.40759L31.1353 13L26.5 11.1386L21.8647 13L22.375 8.40759L19 4.96556L23.9506 3.98865L26.5 0Z" fill="#DFB300"/>
<path d="M45.5 0L47.7095 3.68183L52 4.58359L49.075 7.76085L49.5172 12L45.5 10.2818L41.4828 12L41.925 7.76085L39 4.58359L43.2905 3.68183L45.5 0Z" fill="#DFB300"/>
<path d="M63.5 0L65.7095 3.68183L70 4.58359L67.075 7.76085L67.5172 12L63.5 10.2818L59.4828 12L59.925 7.76085L57 4.58359L61.2905 3.68183L63.5 0Z" fill="#DFB300"/>
<path d="M81.5 0L84.0494 3.98865L89 4.96556L85.625 8.40759L86.1353 13L81.5 11.1386L76.8647 13L77.375 8.40759L74 4.96556L78.9506 3.98865L81.5 0Z" fill="#626262"/>
<path d="M76.8647 13L81.5 11.1386V0L78.9506 3.98865L74 4.96556L77.375 8.40759L76.8647 13Z" fill="#DFB300"/>
</svg>
